<svg t="1646185173667" class="icon" viewBox="0 0 1024 1024" version="1.1" xmlns="http://www.w3.org/2000/svg" p-id="9071" width="128" height="128"><path d="M512 143.36c178.81088 0 324.1984 143.23712 327.61856 321.2288L839.68 471.04v49.47968A102.4 102.4 0 0 1 983.04 614.4v163.84a102.4 102.4 0 0 1-204.8 0V471.04c0-147.0464-119.1936-266.24-266.24-266.24-144.93696 0-262.81984 115.8144-266.15808 259.95264L245.76 471.04v307.2a102.4 102.4 0 0 1-204.8 0v-163.84a102.4 102.4 0 0 1 143.36-93.88032V471.04c0-180.98176 146.69824-327.68 327.68-327.68z m8.6016 358.5024l0.8192 2.68288 41.24672 165.10976 24.24832-48.5376a30.72 30.72 0 0 1 24.59648-16.85504L614.4 604.16h81.92a30.72 30.72 0 0 1 2.94912 61.29664l-2.94912 0.14336-62.93504-0.02048-52.87936 105.92256c-12.30848 24.63744-47.80032 21.64736-56.46336-3.4816l-0.8192-2.78528-44.62592-178.46272-43.52 65.16736a30.72 30.72 0 0 1-22.48704 13.5168l-3.072 0.14336H327.68a30.72 30.72 0 0 1-2.94912-61.29664l2.94912-0.14336 65.4336-0.02048 72.94976-109.17888c14.27456-21.38112 46.46912-16.62976 54.53824 6.92224z" fill="#0066cc" p-id="9072"></path></svg>