<?xml version="1.0" encoding="UTF-8"?>
<svg width="51px" height="50px" viewBox="0 0 51 50" version="1.1" xmlns="http://www.w3.org/2000/svg" xmlns:xlink="http://www.w3.org/1999/xlink">
    <title>sel住院备份</title>
    <defs>
        <linearGradient x1="50%" y1="0%" x2="50%" y2="99.8306381%" id="linearGradient-1">
            <stop stop-color="#4EFEF9" stop-opacity="0" offset="0%"></stop>
            <stop stop-color="#4ECAFE" offset="100%"></stop>
        </linearGradient>
        <linearGradient x1="50%" y1="0%" x2="50%" y2="47.1871724%" id="linearGradient-2">
            <stop stop-color="#4EFEF9" offset="0%"></stop>
            <stop stop-color="#4A9AEC" stop-opacity="0" offset="100%"></stop>
        </linearGradient>
        <linearGradient x1="50%" y1="0%" x2="50%" y2="100%" id="linearGradient-3">
            <stop stop-color="#FFFFFF" offset="0%"></stop>
            <stop stop-color="#A9FFF4" offset="100%"></stop>
        </linearGradient>
    </defs>
    <g id="页面-1" stroke="none" stroke-width="1" fill="none" fill-rule="evenodd">
        <g id="切图" transform="translate(-1417.000000, -1525.000000)">
            <g id="sel住院备份" transform="translate(1417.742843, 1525.000000)">
                <circle id="椭圆形备份" fill="url(#linearGradient-1)" opacity="0.6" cx="25" cy="25" r="25"></circle>
                <circle id="椭圆形备份-8" stroke="url(#linearGradient-2)" cx="25" cy="25" r="24.5"></circle>
                <path d="M25,11.5925926 L32.692,17.3325926 L37,17.3333333 C38.6568542,17.3333333 40,18.6764791 40,20.3333333 L40,37 C40,37.5522847 39.5522847,38 39,38 L11,38 C10.4477153,38 10,37.5522847 10,37 L10,20.3333333 C10,18.6764791 11.3431458,17.3333333 13,17.3333333 L17.308,17.3325926 L25,11.5925926 Z M25.1538462,19.6296296 L24.8461538,19.6296296 C24.2938691,19.6296296 23.8461538,20.0773449 23.8461538,20.6296296 L23.8461538,20.6296296 L23.8459231,25.3696296 L19.0769231,25.3703704 C18.5246383,25.3703704 18.0769231,25.8180856 18.0769231,26.3703704 L18.0769231,26.3703704 L18.0769231,26.6666667 C18.0769231,27.2189514 18.5246383,27.6666667 19.0769231,27.6666667 L19.0769231,27.6666667 L23.8459231,27.6666296 L23.8461538,32.4074074 C23.8461538,32.9596922 24.2938691,33.4074074 24.8461538,33.4074074 L24.8461538,33.4074074 L25.1538462,33.4074074 C25.7061309,33.4074074 26.1538462,32.9596922 26.1538462,32.4074074 L26.1538462,32.4074074 L26.1529231,27.6666296 L30.9230769,27.6666667 C31.4753617,27.6666667 31.9230769,27.2189514 31.9230769,26.6666667 L31.9230769,26.6666667 L31.9230769,26.3703704 C31.9230769,25.8180856 31.4753617,25.3703704 30.9230769,25.3703704 L30.9230769,25.3703704 L26.1529231,25.3696296 L26.1538462,20.6296296 C26.1538462,20.0773449 25.7061309,19.6296296 25.1538462,19.6296296 L25.1538462,19.6296296 Z M25.5980986,7.15932176 L34.1178366,13.5175707 C34.56045,13.8478914 34.6514812,14.4744784 34.3211605,14.9170918 C34.320213,14.9183614 34.3192625,14.9196287 34.318309,14.9208938 L34.1375084,15.1607707 C33.8062044,15.6003279 33.1819655,15.6895039 32.7408388,15.3602926 L25,9.58333333 L17.2591612,15.3602926 C16.8180345,15.6895039 16.1937956,15.6003279 15.8624916,15.1607707 L15.681691,14.9208938 C15.3492705,14.4798552 15.4373228,13.8528427 15.8783614,13.5204221 C15.8796265,13.5194686 15.8808938,13.5185181 15.8821634,13.5175707 L24.4019014,7.15932176 C24.75668,6.89455176 25.24332,6.89455176 25.5980986,7.15932176 Z" id="形状结合" fill="url(#linearGradient-3)"></path>
            </g>
        </g>
    </g>
</svg>