<?xml version="1.0" encoding="UTF-8"?>
<svg width="178px" height="65px" viewBox="0 0 178 65" version="1.1" xmlns="http://www.w3.org/2000/svg" xmlns:xlink="http://www.w3.org/1999/xlink">
    <title>手术台数</title>
    <defs>
        <path d="M148,23.8095238 C148,36.9593074 114.869333,47.6190476 74,47.6190476 C33.1306667,47.6190476 0,36.9593074 0,23.8095238 C0,10.6597403 33.1306667,0 74,0 C114.869333,0 148,10.6597403 148,23.8095238" id="path-1"></path>
        <filter x="-1.4%" y="-4.2%" width="102.7%" height="108.4%" filterUnits="objectBoundingBox" id="filter-2">
            <feGaussianBlur stdDeviation="1.5" in="SourceAlpha" result="shadowBlurInner1"></feGaussianBlur>
            <feOffset dx="0" dy="-1" in="shadowBlurInner1" result="shadowOffsetInner1"></feOffset>
            <feComposite in="shadowOffsetInner1" in2="SourceAlpha" operator="arithmetic" k2="-1" k3="1" result="shadowInnerInner1"></feComposite>
            <feColorMatrix values="0 0 0 0 0.0666666667   0 0 0 0 0.749019608   0 0 0 0 1  0 0 0 1 0" type="matrix" in="shadowInnerInner1"></feColorMatrix>
        </filter>
        <linearGradient x1="93.2362454%" y1="48.4201141%" x2="6.76375844%" y2="48.4201141%" id="linearGradient-3">
            <stop stop-color="#35BDBE" offset="0%"></stop>
            <stop stop-color="#11BFFF" offset="54.2395105%"></stop>
            <stop stop-color="#61FDFF" offset="73.7024694%"></stop>
            <stop stop-color="#61FDFF" offset="86.404611%"></stop>
            <stop stop-color="#35BDBE" offset="100%"></stop>
        </linearGradient>
        <linearGradient x1="47.9350194%" y1="48.4201141%" x2="14.8058816%" y2="48.4201141%" id="linearGradient-4">
            <stop stop-color="#0A3168" stop-opacity="0" offset="0%"></stop>
            <stop stop-color="#42A0EE" offset="48.5959353%"></stop>
            <stop stop-color="#0A3168" stop-opacity="0" offset="100%"></stop>
        </linearGradient>
        <filter x="-10.1%" y="-61.0%" width="120.3%" height="221.9%" filterUnits="objectBoundingBox" id="filter-5">
            <feGaussianBlur stdDeviation="5" in="SourceGraphic"></feGaussianBlur>
        </filter>
        <linearGradient x1="100.126769%" y1="49.996857%" x2="-0.125535424%" y2="50.0087362%" id="linearGradient-6">
            <stop stop-color="#0A3168" stop-opacity="0" offset="0%"></stop>
            <stop stop-color="#42A0EE" offset="48.3746722%"></stop>
            <stop stop-color="#0A3168" stop-opacity="0" offset="100%"></stop>
        </linearGradient>
        <linearGradient x1="100.126769%" y1="49.9997589%" x2="0.868552928%" y2="50.0006612%" id="linearGradient-7">
            <stop stop-color="#11BFFF" stop-opacity="0" offset="0%"></stop>
            <stop stop-color="#42ECEE" offset="47.5469843%"></stop>
            <stop stop-color="#0A3168" stop-opacity="0" offset="100%"></stop>
        </linearGradient>
        <filter x="-16.0%" y="-378.0%" width="131.9%" height="856.0%" filterUnits="objectBoundingBox" id="filter-8">
            <feGaussianBlur stdDeviation="4" in="SourceGraphic"></feGaussianBlur>
        </filter>
        <linearGradient x1="100.126769%" y1="49.9998644%" x2="0.868552928%" y2="50.0003719%" id="linearGradient-9">
            <stop stop-color="#11BFFF" stop-opacity="0" offset="0%"></stop>
            <stop stop-color="#FFFFFF" offset="47.5469843%"></stop>
            <stop stop-color="#0A3168" stop-opacity="0" offset="100%"></stop>
        </linearGradient>
        <filter x="-6.0%" y="-189.1%" width="112.0%" height="478.1%" filterUnits="objectBoundingBox" id="filter-10">
            <feGaussianBlur stdDeviation="1" in="SourceGraphic"></feGaussianBlur>
        </filter>
        <linearGradient x1="50%" y1="54.8512328%" x2="50%" y2="104.87662%" id="linearGradient-11">
            <stop stop-color="#35BDBE" stop-opacity="0.0258686626" offset="0%"></stop>
            <stop stop-color="#42A0EE" offset="100%"></stop>
        </linearGradient>
        <linearGradient x1="50%" y1="15.1710196%" x2="50%" y2="115.454412%" id="linearGradient-12">
            <stop stop-color="#35BDBE" stop-opacity="0" offset="0%"></stop>
            <stop stop-color="#42A0EE" offset="100%"></stop>
        </linearGradient>
        <filter x="-12.8%" y="2.6%" width="125.6%" height="148.5%" filterUnits="objectBoundingBox" id="filter-13">
            <feGaussianBlur stdDeviation="5" in="SourceGraphic"></feGaussianBlur>
        </filter>
        <radialGradient cx="53.2974053%" cy="100%" fx="53.2974053%" fy="100%" r="923.811262%" gradientTransform="translate(0.532974,1.000000),scale(0.086272,1.000000),translate(-0.532974,-1.000000)" id="radialGradient-14">
            <stop stop-color="#42A0EE" offset="0%"></stop>
            <stop stop-color="#0A3654" offset="100%"></stop>
            <stop stop-color="#022444" stop-opacity="0" offset="100%"></stop>
        </radialGradient>
    </defs>
    <g id="页面-1" stroke="none" stroke-width="1" fill="none" fill-rule="evenodd">
        <g id="切图" transform="translate(-40.000000, -781.000000)">
            <g id="手术台数" transform="translate(55.000000, 781.000000)">
                <g id="Fill-4" opacity="0.390216206" fill="black" fill-opacity="1">
                    <use filter="url(#filter-2)" xlink:href="#path-1"></use>
                </g>
                <path d="M148,26.0617761 C148,39.2826395 114.869333,50 74,50 C33.1306667,50 0,39.2826395 0,26.0617761 L0.00694295665,25.7299858 C0.554939325,38.8707208 33.4726136,49.4680395 74,49.4680395 C114.869333,49.4680395 148,38.6911381 148,25.3968254 L147.993036,25.7299458 C147.997674,25.8403769 148,25.9509886 148,26.0617761 Z" id="形状结合" fill="url(#linearGradient-3)" opacity="0.526617006"></path>
                <path d="M148,26.0617761 C148,39.2826395 114.869333,50 74,50 C33.1306667,50 0,39.2826395 0,26.0617761 L0.00694295665,25.7299858 C0.554939325,38.8707208 33.4726136,49.4680395 74,49.4680395 C114.869333,49.4680395 148,38.6911381 148,25.3968254 L147.993036,25.7299458 C147.997674,25.8403769 148,25.9509886 148,26.0617761 Z" id="形状结合" fill="url(#linearGradient-4)" filter="url(#filter-5)"></path>
                <path d="M139.103825,22.6869847 C139.103825,33.3884535 109.95608,42.0634921 74,42.0634921 C38.0439199,42.0634921 8.89617486,33.3884535 8.89617486,22.6869847 C8.89617486,22.5315105 8.90232712,22.376464 8.91456314,22.2218657 C9.74389314,32.7913138 38.5658991,41.2820935 74,41.2820935 C109.434101,41.2820935 138.256107,32.7913138 139.085465,22.2226767 C139.097673,22.376464 139.103825,22.5315105 139.103825,22.6869847 Z" id="形状结合" fill="url(#linearGradient-6)"></path>
                <path d="M73.9999131,42.0634921 C60.0078069,42.0634921 47.0391092,40.8893063 36.3909314,38.8885457 C47.3568547,40.504119 60.2301423,41.4344464 73.9999131,41.4344464 C87.7703613,41.4344464 100.644238,40.5040275 111.610001,38.8883815 C100.96183,40.8892055 87.9926198,42.0634921 73.9999131,42.0634921 Z" id="形状结合" fill="url(#linearGradient-7)" filter="url(#filter-8)"></path>
                <path d="M74.4045358,42.0634921 C65.5337365,42.0634921 57.0673932,41.49938 49.3250583,40.4752593 C57.3006334,41.0034526 65.7124035,41.285768 74.4045358,41.285768 C83.0973845,41.285768 91.5098248,41.003406 99.4851159,40.4755482 C91.7424102,41.4993313 83.2757185,42.0634921 74.4045358,42.0634921 Z" id="形状结合" fill="url(#linearGradient-9)" filter="url(#filter-10)"></path>
                <path d="M74.6313872,12.9288152 C77.4377905,12.9421664 80.183913,13.0093673 82.8429634,13.1246326 L82.8429634,13.1246326 L89.8556227,7.73075427 C85.01307,7.37516774 79.9093008,7.17044959 74.6313872,7.14285714 L74.6313872,7.14285714 L74.6313872,12.9288152 Z M56.526891,7.73075427 L63.5395503,13.1246326 C66.1986006,13.0093673 68.9447232,12.9421664 71.7511265,12.9288152 L71.7511265,12.9288152 L71.7511265,7.14285714 C66.4732129,7.17044959 61.3694437,7.37516774 56.526891,7.73075427 L56.526891,7.73075427 Z M86.1524303,13.3862244 C88.7108017,13.5290796 91.1821081,13.7152242 93.532863,13.9403292 L93.532863,13.9403292 L105.90279,9.80185918 C101.930617,9.15684659 97.6182205,8.62438654 93.0439596,8.23045267 L93.0439596,8.23045267 L86.1524303,13.3862244 Z M40.4797239,9.80185918 L52.8496507,13.9403292 C55.2004056,13.7152242 57.6710422,13.5290796 60.2300834,13.3862244 L60.2300834,13.3862244 L53.3385541,8.23045267 C48.7642931,8.62438654 44.4512272,9.15684659 40.4797239,9.80185918 L40.4797239,9.80185918 Z M36.7765315,10.4056437 L40.4797239,9.58994709 C39.2034567,9.84781248 37.9740489,10.1214656 36.7765315,10.4056437 L36.7765315,10.4056437 Z M98.0849391,14.5890195 C100.283342,14.8824528 102.355171,15.208949 104.267115,15.5717225 L104.267115,15.5717225 L119.069696,12.7838768 C116.331685,11.9072506 113.219945,11.1082305 109.803094,10.4056437 L109.803094,10.4056437 L98.0849391,14.5890195 Z M27.7242834,12.7838768 L42.5261982,15.5717225 C44.4388089,15.208949 46.5106372,14.8824528 48.7090404,14.5890195 L48.7090404,14.5890195 L36.9908856,10.4056437 C33.573368,11.1082305 30.4622945,11.9072506 27.7242834,12.7838768 L27.7242834,12.7838768 Z M109.194516,16.3916485 C110.903197,16.8127017 112.41396,17.2692813 113.707016,17.7469136 L113.707016,17.7469136 L128.121944,16.5758593 C126.670556,15.6460334 124.843125,14.7596286 122.685834,13.9403292 L122.685834,13.9403292 L109.194516,16.3916485 Z M18.6720353,16.5758593 L33.0869638,17.7469136 C34.3800192,17.2692813 35.8907828,16.8127017 37.5994631,16.3916485 L37.5994631,16.3916485 L24.1081456,13.9403292 C21.9508543,14.7596286 20.1240837,15.6460334 18.6720353,16.5758593 L18.6720353,16.5758593 Z M116.600901,19.3419682 C117.467142,19.8763606 118.067976,20.4368315 118.368059,21.0097002 L118.368059,21.0097002 L131.825137,21.0097002 C131.598407,20.0730171 130.984903,19.1675425 130.037973,18.2907113 L130.037973,18.2907113 L116.600901,19.3419682 Z M14.557377,21.0097002 L28.0137099,21.0097002 C28.3144734,20.4368315 28.9146667,19.8763606 29.7816125,19.3419682 L29.7816125,19.3419682 L16.3439523,18.2907113 C15.3969807,19.1675425 14.7834498,20.0730171 14.557377,21.0097002 L14.557377,21.0097002 Z M118.368059,22.9129924 C118.067976,23.485771 117.467142,24.0457263 116.600901,24.5800347 L116.600901,24.5800347 L130.037973,25.6319812 C130.984903,24.7552879 131.598407,23.8491008 131.825137,22.9129924 L131.825137,22.9129924 L118.368059,22.9129924 Z M14.557377,22.9129924 C14.7834498,23.8491008 15.3969807,24.7552879 16.3439523,25.6319812 L16.3439523,25.6319812 L29.7816125,24.5800347 C28.9146667,24.0457263 28.3144734,23.485771 28.0137099,22.9129924 L28.0137099,22.9129924 L14.557377,22.9129924 Z M109.194516,27.258989 L122.685834,29.7104644 C124.843125,28.8903823 126.670556,28.0045182 128.121944,27.0743609 L128.121944,27.0743609 L113.707016,25.9038801 C112.41396,26.3818958 110.903197,26.8375458 109.194516,27.258989 L109.194516,27.258989 Z M18.6720353,27.0743609 C20.1240837,28.0045182 21.9508543,28.8903823 24.1081456,29.7104644 L24.1081456,29.7104644 L37.5994631,27.258989 C35.8907828,26.8375458 34.3800192,26.3818958 33.0869638,25.9038801 L33.0869638,25.9038801 L18.6720353,27.0743609 Z M98.0849391,29.333673 L109.803094,33.5170488 C113.219945,32.8144621 116.331685,32.0149827 119.069696,31.1383565 L119.069696,31.1383565 L104.267115,28.35097 C102.355171,28.7137435 100.283342,29.0397805 98.0849391,29.333673 L98.0849391,29.333673 Z M27.7242834,31.1383565 C30.4622945,32.0149827 33.573368,32.8144621 36.9908856,33.5170488 L36.9908856,33.5170488 L48.7090404,29.333673 C46.5106372,29.0397805 44.4388089,28.7137435 42.5261982,28.35097 L42.5261982,28.35097 L27.7242834,31.1383565 Z M86.1524303,30.5361192 L93.0439596,35.6922399 C97.6182205,35.2982463 101.930617,34.7661384 105.90279,34.121028 L105.90279,34.121028 L93.532863,29.9823633 C91.1821081,30.2070696 88.7108017,30.3928094 86.1524303,30.5361192 L86.1524303,30.5361192 Z M40.4797239,34.121028 C44.4512272,34.7661384 48.7642931,35.2982463 53.3385541,35.6922399 L53.3385541,35.6922399 L60.2300834,30.5361192 C57.6710422,30.3928094 55.2004056,30.2070696 52.8496507,29.9823633 L52.8496507,29.9823633 L40.4797239,34.121028 Z M74.6313872,30.7224381 L74.6313872,36.5079365 C79.9093008,36.4812322 85.01307,36.2764988 89.8556227,35.9204407 L89.8556227,35.9204407 L82.8429634,30.5261611 C80.183913,30.64188 77.4377905,30.7086408 74.6313872,30.7224381 L74.6313872,30.7224381 Z M56.526891,35.9204407 C61.3694437,36.2764988 66.4732129,36.4812322 71.7511265,36.5079365 L71.7511265,36.5079365 L71.7511265,30.7224381 C68.9447232,30.7086408 66.1986006,30.64188 63.5395503,30.5261611 L63.5395503,30.5261611 L56.526891,35.9204407 Z" id="Fill-10" fill="url(#linearGradient-11)" opacity="0.825445131"></path>
                <path d="M118.368059,24.5002939 C118.067976,25.0730726 117.467142,25.6330279 116.600901,26.1673363 L130.037973,27.2192828 C130.984903,26.3425895 131.598407,25.4364023 131.825137,24.5002939 L118.368059,24.5002939 Z M14.557377,24.5002939 C14.7834498,25.4364023 15.3969807,26.3425895 16.3439523,27.2192828 L29.7816125,26.1673363 C28.9146667,25.6330279 28.3144734,25.0730726 28.0137099,24.5002939 L14.557377,24.5002939 Z M122.685834,31.297766 C124.843125,30.4776839 126.670556,29.5918198 128.121944,28.6616625 L113.707016,27.4911817 C112.41396,27.9691974 110.903197,28.4248473 109.194516,28.8462906 L122.685834,31.297766 Z M18.6720353,28.6616625 C20.1240837,29.5918198 21.9508543,30.4776839 24.1081456,31.297766 L37.5994631,28.8462906 C35.8907828,28.4248473 34.3800192,27.9691974 33.0869638,27.4911817 L18.6720353,28.6616625 Z M109.803094,35.1043504 C113.219945,34.4017637 116.331685,33.6022843 119.069696,32.7256581 L104.267115,29.9382716 C102.355171,30.3010451 100.283342,30.6270821 98.0849391,30.9209746 L109.803094,35.1043504 Z M27.7242834,32.7256581 C30.4622945,33.6022843 33.573368,34.4017637 36.9908856,35.1043504 L48.7090404,30.9209746 C46.5106372,30.6270821 44.4388089,30.3010451 42.5261982,29.9382716 L27.7242834,32.7256581 Z M93.0439596,37.2795414 C97.6182205,36.8855478 101.930617,36.35344 105.90279,35.7083296 L93.532863,31.5696649 C91.1821081,31.7943711 88.7108017,31.980111 86.1524303,32.1234207 L93.0439596,37.2795414 Z M40.4797239,35.7083296 C44.4512272,36.35344 48.7642931,36.8855478 53.3385541,37.2795414 L60.2300834,32.1234207 C57.6710422,31.980111 55.2004056,31.7943711 52.8496507,31.5696649 L40.4797239,35.7083296 Z M74.6313872,38.0952381 C79.9093008,38.0685337 85.01307,37.8638004 89.8556227,37.5077423 L82.8429634,32.1134627 C80.183913,32.2291815 77.4377905,32.2959424 74.6313872,32.3097397 L74.6313872,38.0952381 Z M56.526891,37.5077423 C61.3694437,37.8638004 66.4732129,38.0685337 71.7511265,38.0952381 L71.7511265,32.3097397 C68.9447232,32.2959424 66.1986006,32.2291815 63.5395503,32.1134627 L56.526891,37.5077423 Z" id="Fill-10备份" fill="url(#linearGradient-12)" opacity="0.487577217" filter="url(#filter-13)"></path>
                <path d="M74,29.1005291 C54.7844839,29.1005291 39.0303146,26.7777778 37.349377,23.8095238 L37.349377,23.8095238 C37.2492332,23.984127 37.2021858,24.1587302 37.2021858,24.3386243 L37.2021858,24.3386243 C37.2021858,27.5555556 53.6627386,30.1587302 74,30.1587302 L74,30.1587302 C94.3379335,30.1587302 110.797814,27.5555556 110.797814,24.3386243 L110.797814,24.3386243 C110.797814,24.1587302 110.750767,23.984127 110.649951,23.8095238 L110.649951,23.8095238 C108.969685,26.7777778 93.2155161,29.1005291 74,29.1005291" id="Fill-14" fill="url(#radialGradient-14)" opacity="0.360760356"></path>
            </g>
        </g>
    </g>
</svg>