<?xml version="1.0" encoding="UTF-8"?>
<svg width="66px" height="66px" viewBox="0 0 66 66" version="1.1" xmlns="http://www.w3.org/2000/svg" xmlns:xlink="http://www.w3.org/1999/xlink">
    <title>住院次均药费</title>
    <defs>
        <linearGradient x1="50%" y1="17.3125999%" x2="50%" y2="100%" id="linearGradient-1">
            <stop stop-color="#61FDFF" stop-opacity="0" offset="0%"></stop>
            <stop stop-color="#61FDFF" offset="100%"></stop>
        </linearGradient>
        <linearGradient x1="50%" y1="31.9574956%" x2="50%" y2="100%" id="linearGradient-2">
            <stop stop-color="#3DECEF" stop-opacity="0" offset="0%"></stop>
            <stop stop-color="#42ECEE" stop-opacity="0.32" offset="100%"></stop>
        </linearGradient>
        <path d="M9.38063765,45 L56.6193623,45 C57.0270065,45 57.5887955,45.2927369 57.870253,45.6538462 L65.9398631,61.3461538 C66.0297992,61.7072631 65.6504792,62 65.0965285,62 L0.903471482,62 C0.349520756,62 -0.0297991932,61.7072631 0.0601369361,61.3461538 L8.12974704,45.6538462 C8.41120446,45.2927369 8.97299348,45 9.38063765,45 Z" id="path-3"></path>
        <filter x="-3.0%" y="-11.8%" width="106.1%" height="123.5%" filterUnits="objectBoundingBox" id="filter-4">
            <feGaussianBlur stdDeviation="1.5" in="SourceAlpha" result="shadowBlurInner1"></feGaussianBlur>
            <feOffset dx="0" dy="-1" in="shadowBlurInner1" result="shadowOffsetInner1"></feOffset>
            <feComposite in="shadowOffsetInner1" in2="SourceAlpha" operator="arithmetic" k2="-1" k3="1" result="shadowInnerInner1"></feComposite>
            <feColorMatrix values="0 0 0 0 0.258823529   0 0 0 0 0.925490196   0 0 0 0 0.933333333  0 0 0 0.15 0" type="matrix" in="shadowInnerInner1"></feColorMatrix>
        </filter>
        <filter x="-8.1%" y="-300.0%" width="116.2%" height="650.0%" filterUnits="objectBoundingBox" id="filter-5">
            <feGaussianBlur stdDeviation="1" in="SourceGraphic"></feGaussianBlur>
        </filter>
        <filter x="-58.5%" y="-480.0%" width="217.1%" height="1060.0%" filterUnits="objectBoundingBox" id="filter-6">
            <feGaussianBlur stdDeviation="8" in="SourceGraphic"></feGaussianBlur>
        </filter>
        <linearGradient x1="25.7743397%" y1="0%" x2="57.1926359%" y2="71.3985745%" id="linearGradient-7">
            <stop stop-color="#61FDFF" offset="0%"></stop>
            <stop stop-color="#4A9AEC" offset="100%"></stop>
        </linearGradient>
        <path d="M45,22 C47.209139,22 49,23.790861 49,26 L49,52 C49,53.1045695 48.1045695,54 47,54 L19,54 C17.8954305,54 17,53.1045695 17,52 L17,26 C17,23.790861 18.790861,22 21,22 L45,22 Z M42,13 C43.6568542,13 45,14.3431458 45,16 L45,19 C45,19.5522847 44.5522847,20 44,20 L22,20 C21.4477153,20 21,19.5522847 21,19 L21,16 C21,14.3431458 22.3431458,13 24,13 L42,13 Z" id="path-8"></path>
        <filter x="-29.7%" y="-23.2%" width="159.4%" height="146.3%" filterUnits="objectBoundingBox" id="filter-9">
            <feGaussianBlur stdDeviation="1.5" in="SourceAlpha" result="shadowBlurInner1"></feGaussianBlur>
            <feOffset dx="0" dy="-1" in="shadowBlurInner1" result="shadowOffsetInner1"></feOffset>
            <feComposite in="shadowOffsetInner1" in2="SourceAlpha" operator="arithmetic" k2="-1" k3="1" result="shadowInnerInner1"></feComposite>
            <feColorMatrix values="0 0 0 0 0.290196078   0 0 0 0 0.603921569   0 0 0 0 0.925490196  0 0 0 1 0" type="matrix" in="shadowInnerInner1" result="shadowMatrixInner1"></feColorMatrix>
            <feGaussianBlur stdDeviation="1.5" in="SourceAlpha" result="shadowBlurInner2"></feGaussianBlur>
            <feOffset dx="0" dy="1" in="shadowBlurInner2" result="shadowOffsetInner2"></feOffset>
            <feComposite in="shadowOffsetInner2" in2="SourceAlpha" operator="arithmetic" k2="-1" k3="1" result="shadowInnerInner2"></feComposite>
            <feColorMatrix values="0 0 0 0 0.380392157   0 0 0 0 0.992156863   0 0 0 0 1  0 0 0 1 0" type="matrix" in="shadowInnerInner2" result="shadowMatrixInner2"></feColorMatrix>
            <feGaussianBlur stdDeviation="9.5" in="SourceAlpha" result="shadowBlurInner3"></feGaussianBlur>
            <feOffset dx="0" dy="0" in="shadowBlurInner3" result="shadowOffsetInner3"></feOffset>
            <feComposite in="shadowOffsetInner3" in2="SourceAlpha" operator="arithmetic" k2="-1" k3="1" result="shadowInnerInner3"></feComposite>
            <feColorMatrix values="0 0 0 0 0.258823529   0 0 0 0 0.925490196   0 0 0 0 0.933333333  0 0 0 0.5 0" type="matrix" in="shadowInnerInner3" result="shadowMatrixInner3"></feColorMatrix>
            <feMerge>
                <feMergeNode in="shadowMatrixInner1"></feMergeNode>
                <feMergeNode in="shadowMatrixInner2"></feMergeNode>
                <feMergeNode in="shadowMatrixInner3"></feMergeNode>
            </feMerge>
        </filter>
    </defs>
    <g id="页面-1" stroke="none" stroke-width="1" fill="none" fill-rule="evenodd">
        <g id="切图" transform="translate(-150.000000, -322.000000)">
            <g id="住院次均药费" transform="translate(150.000000, 324.000000)">
                <rect id="矩形备份-2" fill="url(#linearGradient-1)" opacity="0.1" x="0" y="0" width="66" height="62" rx="0.5"></rect>
                <g id="矩形备份-4">
                    <use fill="black" fill-opacity="1" filter="url(#filter-4)" xlink:href="#path-3"></use>
                    <path stroke="url(#linearGradient-2)" stroke-width="0.5" d="M56.6193623,45.25 C56.9578479,45.25 57.418014,45.4937608 57.6592323,45.7901598 L57.6592323,45.7901598 L65.6540196,61.3369658 C65.4440609,61.6707899 65.292029,61.75 65.0965285,61.75 L65.0965285,61.75 L0.903471482,61.75 L8.34233135,45.788243 C8.58397017,45.4927106 9.0428821,45.25 9.38063765,45.25 L9.38063765,45.25 Z" stroke-linejoin="square"></path>
                </g>
                <path d="M51,61.25 C51,61.3727299 37.5981817,61.5 31.1472725,61.5 C25.5981817,61.5 14,61.3880712 14,61.25 C14,61.1272701 25.6277787,61 31.1916681,61 C37.6277787,61 51,61.1119288 51,61.25 Z" id="直线-4备份" fill="#61FDFF" fill-rule="nonzero" filter="url(#filter-5)"></path>
                <ellipse id="椭圆形备份-2" fill-opacity="0.65" fill="#42ECEE" filter="url(#filter-6)" cx="32.5" cy="55.5" rx="20.5" ry="2.5"></ellipse>
                <path d="M37.7131568,29.8508172 L38.5323089,30.4243936 C38.7585115,30.5827824 38.8134855,30.8945553 38.6550967,31.1207578 L35.238,35.9993503 L38.5,36 C38.7761424,36 39,36.2238576 39,36.5 L39,37.5 C39,37.7761424 38.7761424,38 38.5,38 L33.999,37.9993503 L33.999,39.9993503 L38.5,40 C38.7761424,40 39,40.2238576 39,40.5 L39,41.5 C39,41.7761424 38.7761424,42 38.5,42 L33.999,41.9993503 L34,46.5 C34,46.7761424 33.7761424,47 33.5,47 L32.5,47 C32.2238576,47 32,46.7761424 32,46.5 L31.999,41.9993503 L27.5,42 C27.2238576,42 27,41.7761424 27,41.5 L27,40.5 C27,40.2238576 27.2238576,40 27.5,40 L31.999,39.9993503 L31.999,37.9993503 L27.5,38 C27.2238576,38 27,37.7761424 27,37.5 L27,36.5 C27,36.2238576 27.2238576,36 27.5,36 L30.761,35.9993503 L27.3449033,31.1207578 C27.1865145,30.8945553 27.2414885,30.5827824 27.4676911,30.4243936 L28.2868432,29.8508172 C28.5130457,29.6924284 28.8248186,29.7474024 28.9832074,29.973605 L32.9995481,35.7103091 L37.0167926,29.973605 C37.1751814,29.7474024 37.4869543,29.6924284 37.7131568,29.8508172 Z" id="形状结合备份-3" fill="url(#linearGradient-7)"></path>
                <g id="形状结合" fill="black" fill-opacity="1">
                    <use filter="url(#filter-9)" xlink:href="#path-8"></use>
                </g>
            </g>
            <rect id="住院次均药费" x="150" y="322" width="66" height="66" rx="0.5"></rect>
        </g>
    </g>
</svg>