<?xml version="1.0" encoding="UTF-8"?>
<svg width="36px" height="36px" viewBox="0 0 36 36" version="1.1" xmlns="http://www.w3.org/2000/svg" xmlns:xlink="http://www.w3.org/1999/xlink">
    <title>门急诊就诊人次</title>
    <defs>
        <linearGradient x1="25.6163526%" y1="12.9076726%" x2="72.9017411%" y2="90.9530988%" id="linearGradient-1">
            <stop stop-color="#61FDFF" offset="0%"></stop>
            <stop stop-color="#4A9AEC" offset="100%"></stop>
        </linearGradient>
        <path d="M16,0.577350269 L26.9903811,6.92264973 C27.6091832,7.27991532 27.9903811,7.94016936 27.9903811,8.65470054 L27.9903811,21.3452995 C27.9903811,22.0598306 27.6091832,22.7200847 26.9903811,23.0773503 L16,29.4226497 C15.3811978,29.7799153 14.6188022,29.7799153 14,29.4226497 L3.00961894,23.0773503 C2.39081679,22.7200847 2.00961894,22.0598306 2.00961894,21.3452995 L2.00961894,8.65470054 C2.00961894,7.94016936 2.39081679,7.27991532 3.00961894,6.92264973 L14,0.577350269 C14.6188022,0.220084679 15.3811978,0.220084679 16,0.577350269 Z" id="path-2"></path>
        <filter x="-1.6%" y="-7.3%" width="103.3%" height="114.6%" filterUnits="objectBoundingBox" id="filter-3">
            <feGaussianBlur stdDeviation="2.5" in="SourceAlpha" result="shadowBlurInner1"></feGaussianBlur>
            <feOffset dx="0" dy="0" in="shadowBlurInner1" result="shadowOffsetInner1"></feOffset>
            <feComposite in="shadowOffsetInner1" in2="SourceAlpha" operator="arithmetic" k2="-1" k3="1" result="shadowInnerInner1"></feComposite>
            <feColorMatrix values="0 0 0 0 0.207843137   0 0 0 0 0.741176471   0 0 0 0 0.745098039  0 0 0 0.5 0" type="matrix" in="shadowInnerInner1"></feColorMatrix>
        </filter>
        <path d="M16,5.57735027 L22.660254,9.42264973 C23.2790562,9.77991532 23.660254,10.4401694 23.660254,11.1547005 L23.660254,18.8452995 C23.660254,19.5598306 23.2790562,20.2200847 22.660254,20.5773503 L16,24.4226497 C15.3811978,24.7799153 14.6188022,24.7799153 14,24.4226497 L7.33974596,20.5773503 C6.72094381,20.2200847 6.33974596,19.5598306 6.33974596,18.8452995 L6.33974596,11.1547005 C6.33974596,10.4401694 6.72094381,9.77991532 7.33974596,9.42264973 L14,5.57735027 C14.6188022,5.22008468 15.3811978,5.22008468 16,5.57735027 Z" id="path-4"></path>
        <filter x="-5.8%" y="-11.0%" width="111.6%" height="121.9%" filterUnits="objectBoundingBox" id="filter-5">
            <feGaussianBlur stdDeviation="2.5" in="SourceAlpha" result="shadowBlurInner1"></feGaussianBlur>
            <feOffset dx="0" dy="0" in="shadowBlurInner1" result="shadowOffsetInner1"></feOffset>
            <feComposite in="shadowOffsetInner1" in2="SourceAlpha" operator="arithmetic" k2="-1" k3="1" result="shadowInnerInner1"></feComposite>
            <feColorMatrix values="0 0 0 0 0.207843137   0 0 0 0 0.741176471   0 0 0 0 0.745098039  0 0 0 0.5 0" type="matrix" in="shadowInnerInner1"></feColorMatrix>
        </filter>
        <linearGradient x1="50%" y1="0%" x2="50%" y2="100%" id="linearGradient-6">
            <stop stop-color="#61FDFF" offset="0%"></stop>
            <stop stop-color="#4A9AEC" offset="100%"></stop>
        </linearGradient>
    </defs>
    <g id="页面-1" stroke="none" stroke-width="1" fill="none" fill-rule="evenodd">
        <g id="切图" transform="translate(-107.000000, -234.000000)">
            <g id="门急诊就诊人次" transform="translate(110.000000, 237.000000)">
                <g id="多边形" opacity="0.2">
                    <use fill="black" fill-opacity="1" filter="url(#filter-3)" xlink:href="#path-2"></use>
                    <path stroke="url(#linearGradient-1)" stroke-width="1" d="M15,0.809401077 C15.2589746,0.809401077 15.5179492,0.876388375 15.75,1.01036297 L15.75,1.01036297 L26.7403811,7.35566243 C26.9724319,7.48963703 27.1599319,7.68042196 27.2894192,7.90470054 C27.4189065,8.12897912 27.4903811,8.38675135 27.4903811,8.65470054 L27.4903811,8.65470054 L27.4903811,21.3452995 C27.4903811,21.8811978 27.2044827,22.3763884 26.7403811,22.6443376 L26.7403811,22.6443376 L15.75,28.989637 C15.5179492,29.1236116 15.2589746,29.1905989 15,29.1905989 C14.7410254,29.1905989 14.4820508,29.1236116 14.25,28.989637 L14.25,28.989637 L3.25961894,22.6443376 C3.02756814,22.510363 2.84006814,22.319578 2.71058084,22.0952995 C2.58109354,21.8710209 2.50961894,21.6132487 2.50961894,21.3452995 L2.50961894,21.3452995 L2.50961894,8.65470054 C2.50961894,8.11880215 2.79551733,7.62361163 3.25961894,7.35566243 L3.25961894,7.35566243 L14.25,1.01036297 C14.4820508,0.876388375 14.7410254,0.809401077 15,0.809401077 Z" stroke-linejoin="square"></path>
                </g>
                <g id="多边形">
                    <use fill="black" fill-opacity="1" filter="url(#filter-5)" xlink:href="#path-4"></use>
                    <path stroke="url(#linearGradient-1)" stroke-width="1" d="M14.25,6.01036297 C14.7141016,5.74241378 15.2858984,5.74241378 15.75,6.01036297 L15.75,6.01036297 L22.410254,9.85566243 C22.8743557,10.1236116 23.160254,10.6188022 23.160254,11.1547005 L23.160254,11.1547005 L23.160254,18.8452995 C23.160254,19.3811978 22.8743557,19.8763884 22.410254,20.1443376 L22.410254,20.1443376 L15.75,23.989637 C15.2858984,24.2575862 14.7141016,24.2575862 14.25,23.989637 L14.25,23.989637 L7.58974596,20.1443376 C7.12564435,19.8763884 6.83974596,19.3811978 6.83974596,18.8452995 L6.83974596,18.8452995 L6.83974596,11.1547005 C6.83974596,10.6188022 7.12564435,10.1236116 7.58974596,9.85566243 L7.58974596,9.85566243 Z" stroke-linejoin="square"></path>
                </g>
                <path d="M17,15 C18.1045695,15 19,15.8954305 19,17 L19,18 C19,18.5522847 18.5522847,19 18,19 L12,19 C11.4477153,19 11,18.5522847 11,18 L11,17 C11,15.8954305 11.8954305,15 13,15 L17,15 Z M15,10 C16.1045695,10 17,10.8954305 17,12 C17,13.1045695 16.1045695,14 15,14 C13.8954305,14 13,13.1045695 13,12 C13,10.8954305 13.8954305,10 15,10 Z" id="形状结合" fill="url(#linearGradient-6)"></path>
            </g>
            <rect id="门急诊就诊人次" x="107" y="234" width="36" height="36" rx="0.5"></rect>
        </g>
    </g>
</svg>