<?xml version="1.0" encoding="UTF-8"?>
<svg width="54px" height="54px" viewBox="0 0 54 54" version="1.1" xmlns="http://www.w3.org/2000/svg" xmlns:xlink="http://www.w3.org/1999/xlink">
    <title>开放床位数</title>
    <defs>
        <linearGradient x1="25.6163526%" y1="12.9076726%" x2="72.9017411%" y2="90.9530988%" id="linearGradient-1">
            <stop stop-color="#61FDFF" offset="0%"></stop>
            <stop stop-color="#4A9AEC" offset="100%"></stop>
        </linearGradient>
        <path d="M28,0.577350269 L49.3826859,12.9226497 C50.0014881,13.2799153 50.3826859,13.9401694 50.3826859,14.6547005 L50.3826859,39.3452995 C50.3826859,40.0598306 50.0014881,40.7200847 49.3826859,41.0773503 L28,53.4226497 C27.3811978,53.7799153 26.6188022,53.7799153 26,53.4226497 L4.6173141,41.0773503 C3.99851194,40.7200847 3.6173141,40.0598306 3.6173141,39.3452995 L3.6173141,14.6547005 C3.6173141,13.9401694 3.99851194,13.2799153 4.6173141,12.9226497 L26,0.577350269 C26.6188022,0.220084679 27.3811978,0.220084679 28,0.577350269 Z" id="path-2"></path>
        <filter x="2.1%" y="-4.1%" width="95.9%" height="108.1%" filterUnits="objectBoundingBox" id="filter-3">
            <feGaussianBlur stdDeviation="2.5" in="SourceAlpha" result="shadowBlurInner1"></feGaussianBlur>
            <feOffset dx="0" dy="0" in="shadowBlurInner1" result="shadowOffsetInner1"></feOffset>
            <feComposite in="shadowOffsetInner1" in2="SourceAlpha" operator="arithmetic" k2="-1" k3="1" result="shadowInnerInner1"></feComposite>
            <feColorMatrix values="0 0 0 0 0.207843137   0 0 0 0 0.741176471   0 0 0 0 0.745098039  0 0 0 0.5 0" type="matrix" in="shadowInnerInner1"></feColorMatrix>
        </filter>
        <path d="M28,9.76883963 L41.4226226,17.5183944 C42.0414248,17.87566 42.4226226,18.535914 42.4226226,19.2504452 L42.4226226,34.7495548 C42.4226226,35.464086 42.0414248,36.12434 41.4226226,36.4816056 L28,44.2311604 C27.3811978,44.588426 26.6188022,44.588426 26,44.2311604 L12.5773774,36.4816056 C11.9585752,36.12434 11.5773774,35.464086 11.5773774,34.7495548 L11.5773774,19.2504452 C11.5773774,18.535914 11.9585752,17.87566 12.5773774,17.5183944 L26,9.76883963 C26.6188022,9.41157404 27.3811978,9.41157404 28,9.76883963 Z" id="path-4"></path>
        <filter x="-0.3%" y="-6.2%" width="100.6%" height="112.3%" filterUnits="objectBoundingBox" id="filter-5">
            <feGaussianBlur stdDeviation="2.5" in="SourceAlpha" result="shadowBlurInner1"></feGaussianBlur>
            <feOffset dx="0" dy="0" in="shadowBlurInner1" result="shadowOffsetInner1"></feOffset>
            <feComposite in="shadowOffsetInner1" in2="SourceAlpha" operator="arithmetic" k2="-1" k3="1" result="shadowInnerInner1"></feComposite>
            <feColorMatrix values="0 0 0 0 0.207843137   0 0 0 0 0.741176471   0 0 0 0 0.745098039  0 0 0 0.5 0" type="matrix" in="shadowInnerInner1"></feColorMatrix>
        </filter>
        <linearGradient x1="50%" y1="0%" x2="50%" y2="100%" id="linearGradient-6">
            <stop stop-color="#61FDFF" offset="0%"></stop>
            <stop stop-color="#4A9AEC" offset="100%"></stop>
        </linearGradient>
    </defs>
    <g id="页面-1" stroke="none" stroke-width="1" fill="none" fill-rule="evenodd">
        <g id="切图" transform="translate(-18.000000, -154.000000)">
            <g id="开放床位数" transform="translate(18.000000, 154.000000)">
                <g id="多边形" opacity="0.2">
                    <use fill="black" fill-opacity="1" filter="url(#filter-3)" xlink:href="#path-2"></use>
                    <path stroke="url(#linearGradient-1)" stroke-width="1" d="M26.25,1.01036297 C26.7141016,0.742413779 27.2858984,0.742413779 27.75,1.01036297 L27.75,1.01036297 L49.1326859,13.3556624 C49.3647367,13.489637 49.5522367,13.680422 49.681724,13.9047005 C49.8112113,14.1289791 49.8826859,14.3867513 49.8826859,14.6547005 L49.8826859,14.6547005 L49.8826859,39.3452995 C49.8826859,39.8811978 49.5967875,40.3763884 49.1326859,40.6443376 L49.1326859,40.6443376 L27.75,52.989637 C27.2858984,53.2575862 26.7141016,53.2575862 26.25,52.989637 L26.25,52.989637 L4.8673141,40.6443376 C4.63526329,40.510363 4.44776329,40.319578 4.31827599,40.0952995 C4.18878869,39.8710209 4.1173141,39.6132487 4.1173141,39.3452995 L4.1173141,39.3452995 L4.1173141,14.6547005 C4.1173141,14.3867513 4.18878869,14.1289791 4.31827599,13.9047005 C4.44776329,13.680422 4.63526329,13.489637 4.8673141,13.3556624 L4.8673141,13.3556624 Z" stroke-linejoin="square"></path>
                </g>
                <g id="多边形">
                    <use fill="black" fill-opacity="1" filter="url(#filter-5)" xlink:href="#path-4"></use>
                    <path stroke="url(#linearGradient-1)" stroke-width="1" d="M27,10.0008904 C27.2589746,10.0008904 27.5179492,10.0678777 27.75,10.2018523 L27.75,10.2018523 L27.75,10.2018523 L41.1726226,17.9514071 C41.4046734,18.0853817 41.5921734,18.2761666 41.7216607,18.5004452 C41.851148,18.7247238 41.9226226,18.982496 41.9226226,19.2504452 L41.9226226,19.2504452 L41.9226226,34.7495548 C41.9226226,35.017504 41.851148,35.2752762 41.7216607,35.4995548 C41.5921734,35.7238334 41.4046734,35.9146183 41.1726226,36.0485929 L41.1726226,36.0485929 L27.75,43.7981477 C27.5179492,43.9321223 27.2589746,43.9991096 27,43.9991096 C26.7410254,43.9991096 26.4820508,43.9321223 26.25,43.7981477 L26.25,43.7981477 L12.8273774,36.0485929 C12.3632758,35.7806437 12.0773774,35.2854532 12.0773774,34.7495548 L12.0773774,34.7495548 L12.0773774,19.2504452 C12.0773774,18.7145468 12.3632758,18.2193563 12.8273774,17.9514071 L12.8273774,17.9514071 L26.25,10.2018523 C26.4820508,10.0678777 26.7410254,10.0008904 27,10.0008904 Z" stroke-linejoin="square"></path>
                </g>
                <path d="M20.0714286,20 C20.3475709,20 20.5714286,20.2238576 20.5714286,20.5 L20.571,29.782 L35.5,29.7826087 L35.5898756,29.7906644 C35.7939687,29.8277083 35.9549004,29.98864 35.9919443,30.1927331 L36,30.2826087 L36,34.5 C36,34.7454599 35.8231248,34.9496084 35.5898756,34.9919443 L35.5,35 L34.5714286,35 C34.3259687,35 34.1218202,34.8231248 34.0794842,34.5898756 L34.0714286,34.5 L34.071,32.391 L19.928,32.391 L19.9285714,34.5 C19.9285714,34.7454599 19.7516963,34.9496084 19.5184471,34.9919443 L19.4285714,35 L18.5,35 C18.2545401,35 18.0503916,34.8231248 18.0080557,34.5898756 L18,34.5 L18,20.5 C18,20.2238576 18.2238576,20 18.5,20 L20.0714286,20 Z M35.5,26 C35.7761424,26 36,26.2238576 36,26.5 L36,28.5 C36,28.7761424 35.7761424,29 35.5,29 L22.5,29 C22.2238576,29 22,28.7761424 22,28.5 L22,27.7 C22,27.4238576 22.2238576,27.2 22.5,27.2 L27.745,27.2 L29,26 L35.5,26 Z M24,22 C25.1045695,22 26,22.8954305 26,24 C26,25.1045695 25.1045695,26 24,26 C22.8954305,26 22,25.1045695 22,24 C22,22.8954305 22.8954305,22 24,22 Z" id="形状结合" fill="url(#linearGradient-6)"></path>
            </g>
            <rect id="开放床位数" x="18" y="154" width="54" height="54" rx="0.5"></rect>
        </g>
    </g>
</svg>