<?xml version="1.0" encoding="UTF-8"?>
<svg width="36px" height="36px" viewBox="0 0 36 36" version="1.1" xmlns="http://www.w3.org/2000/svg" xmlns:xlink="http://www.w3.org/1999/xlink">
    <title>门急诊收入</title>
    <defs>
        <linearGradient x1="25.6163526%" y1="12.9076726%" x2="72.9017411%" y2="90.9530988%" id="linearGradient-1">
            <stop stop-color="#61FDFF" offset="0%"></stop>
            <stop stop-color="#4A9AEC" offset="100%"></stop>
        </linearGradient>
        <path d="M16,0.577350269 L26.9903811,6.92264973 C27.6091832,7.27991532 27.9903811,7.94016936 27.9903811,8.65470054 L27.9903811,21.3452995 C27.9903811,22.0598306 27.6091832,22.7200847 26.9903811,23.0773503 L16,29.4226497 C15.3811978,29.7799153 14.6188022,29.7799153 14,29.4226497 L3.00961894,23.0773503 C2.39081679,22.7200847 2.00961894,22.0598306 2.00961894,21.3452995 L2.00961894,8.65470054 C2.00961894,7.94016936 2.39081679,7.27991532 3.00961894,6.92264973 L14,0.577350269 C14.6188022,0.220084679 15.3811978,0.220084679 16,0.577350269 Z" id="path-2"></path>
        <filter x="-1.6%" y="-7.3%" width="103.3%" height="114.6%" filterUnits="objectBoundingBox" id="filter-3">
            <feGaussianBlur stdDeviation="2.5" in="SourceAlpha" result="shadowBlurInner1"></feGaussianBlur>
            <feOffset dx="0" dy="0" in="shadowBlurInner1" result="shadowOffsetInner1"></feOffset>
            <feComposite in="shadowOffsetInner1" in2="SourceAlpha" operator="arithmetic" k2="-1" k3="1" result="shadowInnerInner1"></feComposite>
            <feColorMatrix values="0 0 0 0 0.207843137   0 0 0 0 0.741176471   0 0 0 0 0.745098039  0 0 0 0.5 0" type="matrix" in="shadowInnerInner1"></feColorMatrix>
        </filter>
        <path d="M16,5.57735027 L22.660254,9.42264973 C23.2790562,9.77991532 23.660254,10.4401694 23.660254,11.1547005 L23.660254,18.8452995 C23.660254,19.5598306 23.2790562,20.2200847 22.660254,20.5773503 L16,24.4226497 C15.3811978,24.7799153 14.6188022,24.7799153 14,24.4226497 L7.33974596,20.5773503 C6.72094381,20.2200847 6.33974596,19.5598306 6.33974596,18.8452995 L6.33974596,11.1547005 C6.33974596,10.4401694 6.72094381,9.77991532 7.33974596,9.42264973 L14,5.57735027 C14.6188022,5.22008468 15.3811978,5.22008468 16,5.57735027 Z" id="path-4"></path>
        <filter x="-5.8%" y="-11.0%" width="111.6%" height="121.9%" filterUnits="objectBoundingBox" id="filter-5">
            <feGaussianBlur stdDeviation="2.5" in="SourceAlpha" result="shadowBlurInner1"></feGaussianBlur>
            <feOffset dx="0" dy="0" in="shadowBlurInner1" result="shadowOffsetInner1"></feOffset>
            <feComposite in="shadowOffsetInner1" in2="SourceAlpha" operator="arithmetic" k2="-1" k3="1" result="shadowInnerInner1"></feComposite>
            <feColorMatrix values="0 0 0 0 0.207843137   0 0 0 0 0.741176471   0 0 0 0 0.745098039  0 0 0 0.5 0" type="matrix" in="shadowInnerInner1"></feColorMatrix>
        </filter>
        <linearGradient x1="50%" y1="0%" x2="50%" y2="100%" id="linearGradient-6">
            <stop stop-color="#61FDFF" offset="0%"></stop>
            <stop stop-color="#4A9AEC" offset="100%"></stop>
        </linearGradient>
        <linearGradient x1="50%" y1="0%" x2="50%" y2="100%" id="linearGradient-7">
            <stop stop-color="#61FDFF" offset="0%"></stop>
            <stop stop-color="#4A9AEC" offset="100%"></stop>
        </linearGradient>
    </defs>
    <g id="页面-1" stroke="none" stroke-width="1" fill="none" fill-rule="evenodd">
        <g id="切图" transform="translate(-22.000000, -234.000000)">
            <g id="门急诊收入" transform="translate(25.000000, 237.000000)">
                <g id="多边形" opacity="0.2">
                    <use fill="black" fill-opacity="1" filter="url(#filter-3)" xlink:href="#path-2"></use>
                    <path stroke="url(#linearGradient-1)" stroke-width="1" d="M15,0.809401077 C15.2589746,0.809401077 15.5179492,0.876388375 15.75,1.01036297 L15.75,1.01036297 L26.7403811,7.35566243 C26.9724319,7.48963703 27.1599319,7.68042196 27.2894192,7.90470054 C27.4189065,8.12897912 27.4903811,8.38675135 27.4903811,8.65470054 L27.4903811,8.65470054 L27.4903811,21.3452995 C27.4903811,21.8811978 27.2044827,22.3763884 26.7403811,22.6443376 L26.7403811,22.6443376 L15.75,28.989637 C15.5179492,29.1236116 15.2589746,29.1905989 15,29.1905989 C14.7410254,29.1905989 14.4820508,29.1236116 14.25,28.989637 L14.25,28.989637 L3.25961894,22.6443376 C3.02756814,22.510363 2.84006814,22.319578 2.71058084,22.0952995 C2.58109354,21.8710209 2.50961894,21.6132487 2.50961894,21.3452995 L2.50961894,21.3452995 L2.50961894,8.65470054 C2.50961894,8.11880215 2.79551733,7.62361163 3.25961894,7.35566243 L3.25961894,7.35566243 L14.25,1.01036297 C14.4820508,0.876388375 14.7410254,0.809401077 15,0.809401077 Z" stroke-linejoin="square"></path>
                </g>
                <g id="多边形">
                    <use fill="black" fill-opacity="1" filter="url(#filter-5)" xlink:href="#path-4"></use>
                    <path stroke="url(#linearGradient-1)" stroke-width="1" d="M14.25,6.01036297 C14.7141016,5.74241378 15.2858984,5.74241378 15.75,6.01036297 L15.75,6.01036297 L22.410254,9.85566243 C22.8743557,10.1236116 23.160254,10.6188022 23.160254,11.1547005 L23.160254,11.1547005 L23.160254,18.8452995 C23.160254,19.3811978 22.8743557,19.8763884 22.410254,20.1443376 L22.410254,20.1443376 L15.75,23.989637 C15.2858984,24.2575862 14.7141016,24.2575862 14.25,23.989637 L14.25,23.989637 L7.58974596,20.1443376 C7.12564435,19.8763884 6.83974596,19.3811978 6.83974596,18.8452995 L6.83974596,18.8452995 L6.83974596,11.1547005 C6.83974596,10.6188022 7.12564435,10.1236116 7.58974596,9.85566243 L7.58974596,9.85566243 Z" stroke-linejoin="square"></path>
                </g>
                <g id="编组-3" transform="translate(11.000000, 10.048242)">
                    <path d="M6,-0.0482114807 C6.55228475,-0.0482114807 7,0.399503769 7,0.951788519 L7,4.95175848 C7,5.50404323 6.55228475,5.95175848 6,5.95175848 L2,5.95175848 C1.44771525,5.95175848 1,5.50404323 1,4.95175848 L1,0.951788519 C1,0.399503769 1.44771525,-0.0482114807 2,-0.0482114807 L2.54722397,-0.0483306607 C2.71369597,0.560630484 3.30101461,1.01060675 4,1.01060675 C4.69898539,1.01060675 5.28630403,0.560630484 5.45277603,-0.0483306607 L6,-0.0482114807 Z" id="形状结合" fill="url(#linearGradient-6)"></path>
                    <path d="M1.45178127,1.68695237 L3.62232011,2.78613095 C3.91171124,2.93268099 4.25420832,2.92975587 4.54105419,2.77828445 L6.53304719,1.72639548 C7.02142278,1.46850457 7.62639132,1.65534932 7.88428224,2.14372491 C7.96027803,2.28764037 8,2.44792938 8,2.61067772 L8,7.95175848 C8,8.50404323 7.55228475,8.95175848 7,8.95175848 L1,8.95175848 C0.44771525,8.95175848 6.76353751e-17,8.50404323 0,7.95175848 L0,2.57908111 C3.76453835e-16,2.02679636 0.44771525,1.57908111 1,1.57908111 C1.15697292,1.57908111 1.31174122,1.61603494 1.45178127,1.68695237 Z" id="矩形" fill="url(#linearGradient-7)"></path>
                    <path d="M3.16363753,4.92920077 L4.05483015,5.82101877 L4.78067891,5.09625146 C4.84959496,5.02733541 4.96132996,5.02733541 5.03024601,5.09625146 C5.09916206,5.16516751 5.09916206,5.27690251 5.03024601,5.34581856 L4.36519406,6.01020203 L4.71238245,6.01058201 C4.80984446,6.01058201 4.88885304,6.08959059 4.88885304,6.1870526 C4.88885304,6.28451462 4.80984446,6.36352319 4.71238245,6.36352319 L4.13719406,6.36320203 L4.13719406,6.71620203 L4.71238245,6.71646437 C4.80984446,6.71646437 4.88885304,6.79547294 4.88885304,6.89293496 C4.88885304,6.99039697 4.80984446,7.06940554 4.71238245,7.06940554 L4.13719406,7.06920203 L4.13774751,7.80153738 C4.13774751,7.88450221 4.07049123,7.95175848 3.98752641,7.95175848 C3.90456158,7.95175848 3.8373053,7.88450221 3.8373053,7.80153738 L3.83719406,7.06920203 L3.26267037,7.06940554 C3.16520835,7.06940554 3.08619978,6.99039697 3.08619978,6.89293496 C3.08619978,6.79547294 3.16520835,6.71646437 3.26267037,6.71646437 L3.83719406,6.71620203 L3.83719406,6.36320203 L3.26267037,6.36352319 C3.16520835,6.36352319 3.08619978,6.28451462 3.08619978,6.1870526 C3.08619978,6.08959059 3.16520835,6.01058201 3.26267037,6.01058201 L3.82019406,6.01020203 L2.9511928,5.1416455 C2.89252781,5.08298051 2.89252781,4.98786576 2.9511928,4.92920077 C3.00985779,4.87053578 3.10497254,4.87053578 3.16363753,4.92920077 Z" id="形状结合" fill="#FFFFFF"></path>
                </g>
            </g>
            <rect id="门急诊收入" x="22" y="234" width="36" height="36" rx="0.5"></rect>
        </g>
    </g>
</svg>