<?xml version="1.0" encoding="UTF-8"?>
<svg width="372px" height="216px" viewBox="0 0 372 216" version="1.1" xmlns="http://www.w3.org/2000/svg" xmlns:xlink="http://www.w3.org/1999/xlink">
    <title>编组 18</title>
    <defs>
        <filter color-interpolation-filters="auto" id="filter-1">
            <feColorMatrix in="SourceGraphic" type="matrix" values="0 0 0 0 1.000000 0 0 0 0 1.000000 0 0 0 0 1.000000 0 0 0 1.000000 0"></feColorMatrix>
        </filter>
    </defs>
    <g id="页面-1" stroke="none" stroke-width="1" fill="none" fill-rule="evenodd" opacity="0.3">
        <g id="数据大屏/图表空1" transform="translate(-826.000000, -706.000000)">
            <g id="编组-2" transform="translate(826.000000, 706.000000)" filter="url(#filter-1)">
                <g>
                    <g id="编组-26备份">
                        <text id="字体/14px/白/左" opacity="0.6" font-family="PingFangSC-Regular, PingFang SC" font-size="14" font-weight="normal" line-spacing="14" fill="#FFFFFF">
                            <tspan x="280" y="23.9589527"># # </tspan>
                        </text>
                        <text id="字体/14px/白/左" opacity="0.6" font-family="PingFangSC-Regular, PingFang SC" font-size="14" font-weight="normal" line-spacing="14" fill="#FFFFFF">
                            <tspan x="344" y="24"># #</tspan>
                        </text>
                        <polygon id="Rectangle-3备份" fill="#FFFFFF" opacity="0.15" points="48 194 372 194 372 195 48 195"></polygon>
                        <polygon id="Rectangle-3备份-2" fill="#FFFFFF" opacity="0.15" points="48 162 372 162 372 163 48 163"></polygon>
                        <polygon id="Rectangle-3备份-3" fill="#FFFFFF" opacity="0.15" points="48 130 372 130 372 131 48 131"></polygon>
                        <polygon id="Rectangle-3备份-4" fill="#FAF475" points="48 99 372 99 372 100 48 100"></polygon>
                        <polygon id="Rectangle-3备份-5" fill="#FFFFFF" opacity="0.15" points="48 67 372 67 372 68 48 68"></polygon>
                        <polygon id="Rectangle-3备份-6" fill="#FFFFFF" opacity="0.15" points="48 35 372 35 372 36 48 36"></polygon>
                        <polygon id="Rectangle-8-Copy-2备份-4" fill="#FFFFFF" opacity="0.15" points="47 4.69181985e-13 48 4.69181985e-13 48 195 47 195"></polygon>
                        <text id="字体/12px/333/中" opacity="0.6" font-family="MicrosoftYaHei, Microsoft YaHei" font-size="14" font-weight="normal" line-spacing="14" fill="#FFFFFF">
                            <tspan x="64" y="215.833789">12</tspan>
                        </text>
                        <text id="字体/12px/333/中备份" opacity="0.6" font-family="MicrosoftYaHei, Microsoft YaHei" font-size="14" font-weight="normal" line-spacing="14" fill="#FFFFFF">
                            <tspan x="104" y="216">21-01</tspan>
                        </text>
                        <text id="字体/12px/333/中备份-2" opacity="0.6" font-family="MicrosoftYaHei, Microsoft YaHei" font-size="14" font-weight="normal" line-spacing="14" fill="#FFFFFF">
                            <tspan x="164" y="215.833789">02</tspan>
                        </text>
                        <text id="字体/12px/333/中备份-3" opacity="0.6" font-family="MicrosoftYaHei, Microsoft YaHei" font-size="14" font-weight="normal" line-spacing="14" fill="#FFFFFF">
                            <tspan x="214" y="215.833789">03</tspan>
                        </text>
                        <text id="字体/12px/333/中备份-4" opacity="0.6" font-family="MicrosoftYaHei, Microsoft YaHei" font-size="14" font-weight="normal" line-spacing="14" fill="#FFFFFF">
                            <tspan x="264" y="215.833789">04</tspan>
                        </text>
                        <text id="字体/12px/333/中备份-5" opacity="0.6" font-family="MicrosoftYaHei, Microsoft YaHei" font-size="14" font-weight="normal" line-spacing="14" fill="#FFFFFF">
                            <tspan x="314" y="216">05</tspan>
                        </text>
                        <text id="字体/12px/333/右" opacity="0.6" font-family="ArialMT, Arial" font-size="14" font-weight="normal" line-spacing="14" fill="#FFFFFF">
                            <tspan x="0" y="168">000.00</tspan>
                        </text>
                        <text id="字体/12px/333/右" opacity="0.6" font-family="ArialMT, Arial" font-size="14" font-weight="normal" line-spacing="14" fill="#FFFFFF">
                            <tspan x="0" y="137">000.00</tspan>
                        </text>
                        <text id="字体/12px/333/右" opacity="0.6" font-family="ArialMT, Arial" font-size="14" font-weight="normal" line-spacing="14" fill="#FFFFFF">
                            <tspan x="0" y="106">000.00</tspan>
                        </text>
                        <text id="字体/12px/333/右" opacity="0.6" font-family="ArialMT, Arial" font-size="14" font-weight="normal" line-spacing="14" fill="#FFFFFF">
                            <tspan x="0" y="73">000.00</tspan>
                        </text>
                        <text id="字体/12px/333/右" opacity="0.6" font-family="ArialMT, Arial" font-size="14" font-weight="normal" line-spacing="14" fill="#FFFFFF">
                            <tspan x="0" y="41">000.00</tspan>
                        </text>
                        <text id="字体/12px/333/右备份-2" opacity="0.6" font-family="MicrosoftYaHei, Microsoft YaHei" font-size="14" font-weight="normal" line-spacing="14" fill="#FFFFFF">
                            <tspan x="344" y="216">月份</tspan>
                        </text>
                    </g>
                    <rect id="矩形备份-57" fill="#4EFEF9" opacity="0.8" x="266" y="12" width="8" height="8"></rect>
                    <rect id="矩形备份-58" fill="#4A9AEC" opacity="0.8" x="330" y="12" width="8" height="8"></rect>
                    <g id="编组-65" transform="translate(62.000000, 148.000000)" opacity="0.8">
                        <polygon id="矩形备份-7" fill="#4EFEF9" points="0 10 20 10 20 46 0 46"></polygon>
                        <path d="M1,0 L19,0 C19.5522847,-1.01453063e-16 20,0.44771525 20,1 L20,9 L20,9 L0,9 L0,1 C-6.76353751e-17,0.44771525 0.44771525,1.01453063e-16 1,0 Z" id="矩形备份-13" fill="#4A9AEC"></path>
                    </g>
                    <g id="编组-58" transform="translate(114.000000, 125.000000)" opacity="0.8">
                        <polygon id="矩形备份-18" fill="#4EFEF9" points="0 38 20 38 20 69 0 69"></polygon>
                        <path d="M1,0 L19,0 C19.5522847,-1.01453063e-16 20,0.44771525 20,1 L20,37 L20,37 L0,37 L0,1 C-6.76353751e-17,0.44771525 0.44771525,1.01453063e-16 1,0 Z" id="矩形备份-19" fill="#4A9AEC"></path>
                    </g>
                    <g id="编组-61" transform="translate(163.000000, 85.000000)" opacity="0.8">
                        <polygon id="矩形备份-44" fill="#4EFEF9" points="0 24 20 24 20 109 0 109"></polygon>
                        <path d="M1,0 L19,0 C19.5522847,-1.01453063e-16 20,0.44771525 20,1 L20,23 L20,23 L0,23 L0,1 C-6.76353751e-17,0.44771525 0.44771525,1.01453063e-16 1,0 Z" id="矩形备份-45" fill="#4A9AEC"></path>
                    </g>
                    <g id="编组-63" transform="translate(263.000000, 126.000000)" opacity="0.8">
                        <polygon id="矩形备份-48" fill="#4EFEF9" points="0 8 20 8 20 68 0 68"></polygon>
                        <path d="M1,0 L19,0 C19.5522847,-1.01453063e-16 20,0.44771525 20,1 L20,7 L20,7 L0,7 L0,1 C-6.76353751e-17,0.44771525 0.44771525,1.01453063e-16 1,0 Z" id="矩形备份-49" fill="#4A9AEC"></path>
                    </g>
                    <g id="编组-64" transform="translate(312.000000, 140.000000)" opacity="0.8">
                        <polygon id="矩形备份-50" fill="#4EFEF9" points="0 18 20 18 20 54 0 54"></polygon>
                        <path d="M1,0 L19,0 C19.5522847,-1.01453063e-16 20,0.44771525 20,1 L20,17 L20,17 L0,17 L0,1 C-6.76353751e-17,0.44771525 0.44771525,1.01453063e-16 1,0 Z" id="矩形备份-52" fill="#4A9AEC"></path>
                    </g>
                    <g id="编组-62" transform="translate(212.000000, 55.000000)" opacity="0.8">
                        <polygon id="矩形备份-46" fill="#4EFEF9" points="0 35 20 35 20 139 0 139"></polygon>
                        <path d="M1,0 L19,0 C19.5522847,-1.01453063e-16 20,0.44771525 20,1 L20,34 L20,34 L0,34 L0,1 C-6.76353751e-17,0.44771525 0.44771525,1.01453063e-16 1,0 Z" id="矩形备份-47" fill="#4A9AEC"></path>
                    </g>
                </g>
            </g>
        </g>
    </g>
</svg>