<?xml version="1.0" encoding="UTF-8"?>
<svg width="319px" height="140px" viewBox="0 0 319 140" version="1.1" xmlns="http://www.w3.org/2000/svg" xmlns:xlink="http://www.w3.org/1999/xlink">
    <title>编组 23</title>
    <defs>
        <filter color-interpolation-filters="auto" id="filter-1">
            <feColorMatrix in="SourceGraphic" type="matrix" values="0 0 0 0 1.000000 0 0 0 0 1.000000 0 0 0 0 1.000000 0 0 0 1.000000 0"></feColorMatrix>
        </filter>
    </defs>
    <g id="页面-1" stroke="none" stroke-width="1" fill="none" fill-rule="evenodd" opacity="0.3">
        <g id="数据大屏/图表空1" transform="translate(-826.000000, -1578.000000)">
            <g id="编组-12" transform="translate(826.000000, 1578.000000)" filter="url(#filter-1)">
                <g>
                    <g id="编组" transform="translate(178.000000, 3.000000)">
                        <circle id="椭圆形" fill="#4EFEF9" opacity="0.8" cx="4" cy="7" r="4"></circle>
                        <g transform="translate(16.000000, 0.000000)" fill="#FFFFFF" font-family="PingFangSC-Regular, PingFang SC" font-size="14" font-weight="normal" id="字体/14px/白/左备份-79" line-spacing="14" opacity="0.6">
                            <g>
                                <text id="字体/14px/白/左">
                                    <tspan x="0" y="15"># # # # #</tspan>
                                </text>
                            </g>
                        </g>
                        <g id="字体/14px/白/左备份-83" transform="translate(90.000000, 0.000000)" fill="#FFFFFF" font-family="DIN-Regular, DIN" font-size="14" font-weight="normal" line-spacing="14">
                            <text id="字体/14px/白/左">
                                <tspan x="0" y="14">00.00%</tspan>
                            </text>
                        </g>
                    </g>
                    <g id="编组-2" transform="translate(178.000000, 33.000000)">
                        <circle id="椭圆形备份-29" fill="#FAF475" opacity="0.8" cx="4" cy="7" r="4"></circle>
                        <g id="字体/14px/白/左备份-84" transform="translate(90.000000, 0.000000)" fill="#FFFFFF" font-family="DIN-Regular, DIN" font-size="14" font-weight="normal" line-spacing="14">
                            <text id="字体/14px/白/左">
                                <tspan x="0" y="14">00.00%</tspan>
                            </text>
                        </g>
                        <g id="编组" transform="translate(16.000000, 0.000000)" fill="#FFFFFF" font-family="PingFangSC-Regular, PingFang SC" font-size="14" font-weight="normal" line-spacing="14" opacity="0.6">
                            <g id="字体/14px/白/左备份-79">
                                <text id="字体/14px/白/左">
                                    <tspan x="0" y="15"># # # # #</tspan>
                                </text>
                            </g>
                        </g>
                    </g>
                    <g id="编组-3" transform="translate(178.000000, 63.000000)">
                        <circle id="椭圆形备份-30" fill="#F27834" opacity="0.8" cx="4" cy="7" r="4"></circle>
                        <g id="字体/14px/白/左备份-85" transform="translate(90.000000, 0.000000)" fill="#FFFFFF" font-family="DIN-Regular, DIN" font-size="14" font-weight="normal" line-spacing="14">
                            <text id="字体/14px/白/左">
                                <tspan x="0" y="14">00.00%</tspan>
                            </text>
                        </g>
                        <g id="编组" transform="translate(16.000000, 0.000000)" fill="#FFFFFF" font-family="PingFangSC-Regular, PingFang SC" font-size="14" font-weight="normal" line-spacing="14" opacity="0.6">
                            <g id="字体/14px/白/左备份-79">
                                <text id="字体/14px/白/左">
                                    <tspan x="0" y="15"># # # # #</tspan>
                                </text>
                            </g>
                        </g>
                    </g>
                    <g id="编组-4" transform="translate(178.000000, 93.000000)">
                        <circle id="椭圆形备份-31" fill="#DC4B46" opacity="0.8" cx="4" cy="7" r="4"></circle>
                        <g id="字体/14px/白/左备份-86" transform="translate(90.000000, 0.000000)" fill="#FFFFFF" font-family="DIN-Regular, DIN" font-size="14" font-weight="normal" line-spacing="14">
                            <text id="字体/14px/白/左">
                                <tspan x="0" y="14">00.00%</tspan>
                            </text>
                        </g>
                        <g id="编组" transform="translate(16.000000, 0.000000)" fill="#FFFFFF" font-family="PingFangSC-Regular, PingFang SC" font-size="14" font-weight="normal" line-spacing="14" opacity="0.6">
                            <g id="字体/14px/白/左备份-79">
                                <text id="字体/14px/白/左">
                                    <tspan x="0" y="15"># # # # #</tspan>
                                </text>
                            </g>
                        </g>
                    </g>
                    <g id="编组-5" transform="translate(178.000000, 123.000000)">
                        <circle id="椭圆形备份-34" fill="#4A9AEC" opacity="0.8" cx="4" cy="7" r="4"></circle>
                        <g id="字体/14px/白/左备份-89" transform="translate(90.000000, 0.000000)" fill="#FFFFFF" font-family="DIN-Regular, DIN" font-size="14" font-weight="normal" line-spacing="14">
                            <text id="字体/14px/白/左">
                                <tspan x="0" y="14">00.00%</tspan>
                            </text>
                        </g>
                        <g id="编组" transform="translate(16.000000, 0.000000)" fill="#FFFFFF" font-family="PingFangSC-Regular, PingFang SC" font-size="14" font-weight="normal" line-spacing="14" opacity="0.6">
                            <g id="字体/14px/白/左备份-79">
                                <text id="字体/14px/白/左">
                                    <tspan x="0" y="15"># # # # #</tspan>
                                </text>
                            </g>
                        </g>
                    </g>
                    <path d="M69.0491964,0.00632542475 L69.049255,30.0110772 C64.7978132,30.1102416 60.7104229,30.8727368 56.8865706,32.1990765 L45.288353,4.48673453 C52.6921145,1.69261776 60.6939892,0.117554497 69.0491964,0.00632542475 Z" id="形状结合" fill="#4A9AEC" opacity="0.8"></path>
                    <path d="M43.0519932,5.37523802 L54.7973755,32.9902557 C45.7800505,36.6983029 38.4162412,43.6060208 34.1192807,52.3000763 L5.55030709,42.6364356 C12.6898501,25.8418005 26.202189,12.4096244 43.0519932,5.37523802 Z" id="形状结合" fill="#DC4B46" opacity="0.8"></path>
                    <path d="M4.49807943,45.2583126 L33.0593132,54.6305184 C31.0883128,59.3624064 30,64.5541086 30,70 C30,78.5080286 32.6562789,86.39565 37.1847641,92.8787916 L14.0494206,112.072523 C5.22878003,100.360875 0,85.7910611 0,70 C0,61.2896111 1.59093646,52.9508053 4.49807943,45.2583126 Z" id="形状结合" fill="#F27834" opacity="0.8"></path>
                    <path d="M70,110 C78.6699869,110 86.6957218,107.241629 93.2474974,102.554594 L109.156658,128.032264 C97.9808589,135.587806 84.505691,140 70,140 C48.2942136,140 28.8958753,130.12064 16.0562676,114.613204 L38.7242078,94.9388306 C46.0535651,104.118505 57.3399342,110 70,110 Z" id="形状结合" fill="#FAF475" opacity="0.8"></path>
                    <path d="M71,0.008 L70,0 C108.659932,0 140,31.3400675 140,70 C140,93.3715658 128.546101,114.06793 110.945396,126.781998 L94.7913011,101.393019 C104.055442,94.0670886 110,82.7277573 110,70 C110,48.2431655 92.6297044,30.5433809 71.0007409,30.0122741 L71,0.008 Z" id="形状结合" fill="#4EFEF9" opacity="0.8"></path>
                </g>
            </g>
        </g>
    </g>
</svg>