<?xml version="1.0" encoding="UTF-8"?>
<svg width="340px" height="171px" viewBox="0 0 340 171" version="1.1" xmlns="http://www.w3.org/2000/svg" xmlns:xlink="http://www.w3.org/1999/xlink">
    <title>编组 11</title>
    <defs>
        <filter color-interpolation-filters="auto" id="filter-1">
            <feColorMatrix in="SourceGraphic" type="matrix" values="0 0 0 0 1.000000 0 0 0 0 1.000000 0 0 0 0 1.000000 0 0 0 1.000000 0"></feColorMatrix>
        </filter>
    </defs>
    <g id="页面-1" stroke="none" stroke-width="1" fill="none" fill-rule="evenodd" opacity="0.3">
        <g id="编组-11" transform="translate(-141.000000, -1562.000000)" filter="url(#filter-1)">
            <g transform="translate(141.000000, 1562.000000)">
                <g id="编组-17备份" transform="translate(199.000000, 0.000000)">
                    <circle id="椭圆形" fill="#4EFEF9" opacity="0.8" cx="4" cy="7" r="4"></circle>
                    <circle id="椭圆形备份-29" fill="#FAF475" opacity="0.8" cx="4" cy="33" r="4"></circle>
                    <circle id="椭圆形备份-30" fill="#F27834" opacity="0.8" cx="4" cy="59" r="4"></circle>
                    <circle id="椭圆形备份-31" fill="#DC4B46" opacity="0.8" cx="4" cy="85" r="4"></circle>
                    <circle id="椭圆形备份-32" fill="#B568FF" opacity="0.8" cx="4" cy="112" r="4"></circle>
                    <circle id="椭圆形备份-33" fill="#25FCC1" opacity="0.8" cx="4" cy="138" r="4"></circle>
                    <circle id="椭圆形备份-34" fill="#4A9AEC" opacity="0.8" cx="4" cy="164" r="4"></circle>
                    <g id="编组" transform="translate(16.000000, 0.000000)" fill="#FFFFFF" font-family="PingFangSC-Regular, PingFang SC" font-size="14" font-weight="normal" line-spacing="14" opacity="0.6">
                        <g id="字体/14px/白/左备份-79">
                            <text id="字体/14px/白/左">
                                <tspan x="0" y="15"># # # # #</tspan>
                            </text>
                        </g>
                    </g>
                    <g id="字体/14px/白/左备份-83" transform="translate(90.000000, 0.000000)" fill="#FFFFFF" font-family="DIN-Regular, DIN" font-size="14" font-weight="normal" line-spacing="14">
                        <text id="字体/14px/白/左">
                            <tspan x="0" y="14">00.00%</tspan>
                        </text>
                    </g>
                    <g id="字体/14px/白/左备份-84" transform="translate(90.000000, 26.000000)" fill="#FFFFFF" font-family="DIN-Regular, DIN" font-size="14" font-weight="normal" line-spacing="14">
                        <text id="字体/14px/白/左">
                            <tspan x="0" y="14">00.00%</tspan>
                        </text>
                    </g>
                    <g id="字体/14px/白/左备份-85" transform="translate(90.000000, 52.000000)" fill="#FFFFFF" font-family="DIN-Regular, DIN" font-size="14" font-weight="normal" line-spacing="14">
                        <text id="字体/14px/白/左">
                            <tspan x="0" y="14">00.00%</tspan>
                        </text>
                    </g>
                    <g id="字体/14px/白/左备份-86" transform="translate(90.000000, 78.000000)" fill="#FFFFFF" font-family="DIN-Regular, DIN" font-size="14" font-weight="normal" line-spacing="14">
                        <text id="字体/14px/白/左">
                            <tspan x="0" y="14">00.00%</tspan>
                        </text>
                    </g>
                    <g id="字体/14px/白/左备份-87" transform="translate(90.000000, 105.000000)" fill="#FFFFFF" font-family="DIN-Regular, DIN" font-size="14" font-weight="normal" line-spacing="14">
                        <text id="字体/14px/白/左">
                            <tspan x="0" y="14">00.00%</tspan>
                        </text>
                    </g>
                    <g id="字体/14px/白/左备份-88" transform="translate(90.000000, 131.000000)" fill="#FFFFFF" font-family="DIN-Regular, DIN" font-size="14" font-weight="normal" line-spacing="14">
                        <text id="字体/14px/白/左">
                            <tspan x="0" y="14">00.00%</tspan>
                        </text>
                    </g>
                    <g id="字体/14px/白/左备份-89" transform="translate(90.000000, 157.000000)" fill="#FFFFFF" font-family="DIN-Regular, DIN" font-size="14" font-weight="normal" line-spacing="14">
                        <text id="字体/14px/白/左">
                            <tspan x="0" y="14">00.00%</tspan>
                        </text>
                    </g>
                    <g id="编组" transform="translate(16.000000, 26.000000)" fill="#FFFFFF" font-family="PingFangSC-Regular, PingFang SC" font-size="14" font-weight="normal" line-spacing="14" opacity="0.6">
                        <g id="字体/14px/白/左备份-79">
                            <text id="字体/14px/白/左">
                                <tspan x="0" y="15"># # # # #</tspan>
                            </text>
                        </g>
                    </g>
                    <g id="编组" transform="translate(16.000000, 52.000000)" fill="#FFFFFF" font-family="PingFangSC-Regular, PingFang SC" font-size="14" font-weight="normal" line-spacing="14" opacity="0.6">
                        <g id="字体/14px/白/左备份-79">
                            <text id="字体/14px/白/左">
                                <tspan x="0" y="15"># # # # #</tspan>
                            </text>
                        </g>
                    </g>
                    <g id="编组" transform="translate(16.000000, 78.000000)" fill="#FFFFFF" font-family="PingFangSC-Regular, PingFang SC" font-size="14" font-weight="normal" line-spacing="14" opacity="0.6">
                        <g id="字体/14px/白/左备份-79">
                            <text id="字体/14px/白/左">
                                <tspan x="0" y="15"># # # # #</tspan>
                            </text>
                        </g>
                    </g>
                    <g id="编组" transform="translate(16.000000, 105.000000)" fill="#FFFFFF" font-family="PingFangSC-Regular, PingFang SC" font-size="14" font-weight="normal" line-spacing="14" opacity="0.6">
                        <g id="字体/14px/白/左备份-79">
                            <text id="字体/14px/白/左">
                                <tspan x="0" y="15"># # # # #</tspan>
                            </text>
                        </g>
                    </g>
                    <g id="编组" transform="translate(16.000000, 131.000000)" fill="#FFFFFF" font-family="PingFangSC-Regular, PingFang SC" font-size="14" font-weight="normal" line-spacing="14" opacity="0.6">
                        <g id="字体/14px/白/左备份-79">
                            <text id="字体/14px/白/左">
                                <tspan x="0" y="15"># # # # #</tspan>
                            </text>
                        </g>
                    </g>
                    <g id="编组" transform="translate(16.000000, 157.000000)" fill="#FFFFFF" font-family="PingFangSC-Regular, PingFang SC" font-size="14" font-weight="normal" line-spacing="14" opacity="0.6">
                        <g id="字体/14px/白/左备份-79">
                            <text id="字体/14px/白/左">
                                <tspan x="0" y="15"># # # # #</tspan>
                            </text>
                        </g>
                    </g>
                </g>
                <g id="编组-5备份" transform="translate(0.000000, 9.000000)" opacity="0.8">
                    <path d="M59.5620352,115.865919 L45.0772134,154.522361 C25.1392684,146.786947 9.08368164,131.422014 0.595674178,112.067005 L38.9024126,95.1010698 C42.7690875,104.407111 50.2210997,111.886949 59.5620352,115.865919 Z" id="形状结合" fill="#DC4B46"></path>
                    <path d="M152.468313,70.2559375 L111.781492,75.3739105 C109.774778,56.5396399 94.1867864,41.7637374 74.9999972,41.028684 L74.9999271,0.0138663448 C115.101366,0.755879133 147.944571,31.1903122 152.468313,70.2559375 Z" id="形状结合" fill="#35BDBE"></path>
                    <path d="M92.4382623,115.574427 L102.407336,132.72349 C93.9805856,137.361449 84.2984261,140 74,140 C66.7086318,140 59.7261828,138.677359 53.2794894,136.258915 L60.163545,117.242184 C64.5945467,119.021133 69.43296,120 74.5,120 C80.9775522,120 87.0814759,118.400306 92.4382623,115.574427 Z" id="形状结合" fill="#FF812E"></path>
                    <path d="M9.98022971,53.407962 L38.1731033,64.1698432 C36.1317938,68.8673656 35,74.0515105 35,79.5 C35,84.1669957 35.8304048,88.64004 37.3515197,92.7794381 L9.96144424,104.545776 C6.76212104,96.6586957 5,88.0351305 5,79 C5,69.9472011 6.76901949,61.3075789 9.98022971,53.407962 Z" id="形状结合" fill="#4A9AEC"></path>
                    <path d="M73.9987789,20.001949 L73.999,40.004 L73.8467953,40.0050909 C68.6469188,40.0861974 63.6912954,41.133932 59.1656195,42.969652 L49.1159796,25.3367051 C56.6928566,21.9745752 65.1178096,20.0710369 73.9987789,20.001949 Z" id="形状结合" fill="#B568FF"></path>
                    <path d="M142,79 C142,104.107316 128.392841,126.03651 108.150766,137.815339 L93.4571837,113.01706 C105.126147,106.402906 113,93.8709716 113,79.5 C113,78.0995891 112.92523,76.7166416 112.779465,75.3549318 L141.619835,71.7667351 C141.871136,74.1434419 142,76.5566721 142,79 Z" id="形状结合" fill="#FAF475"></path>
                    <path d="M37.987626,7.35301467 L58.4879858,43.0365617 C50.030564,46.6211308 43.119879,53.1427377 39.0352217,61.3220915 L0.929330289,45.9903081 C8.44965837,29.2286109 21.6065662,15.5453705 37.987626,7.35301467 Z" id="形状结合" fill="#00BF8F"></path>
                </g>
            </g>
        </g>
    </g>
</svg>