<?xml version="1.0" encoding="UTF-8"?>
<svg width="29px" height="29px" viewBox="0 0 29 29" version="1.1" xmlns="http://www.w3.org/2000/svg" xmlns:xlink="http://www.w3.org/1999/xlink">
    <title>地标指示</title>
    <defs>
        <linearGradient x1="50%" y1="6.88804549%" x2="50%" y2="100%" id="linearGradient-1">
            <stop stop-color="#86FFFD" stop-opacity="0" offset="0%"></stop>
            <stop stop-color="#6DEEFF" offset="26.3638244%"></stop>
            <stop stop-color="#21DDFF" offset="39.4421984%"></stop>
            <stop stop-color="#5CE8FB" stop-opacity="0.164499563" offset="74.4782561%"></stop>
            <stop stop-color="#51F9FA" offset="94.0204327%"></stop>
            <stop stop-color="#4EFEF9" offset="100%"></stop>
        </linearGradient>
        <path d="M8.9472136,0.894427191 L16.3573339,15.7146677 C16.4808285,15.961657 16.3807163,16.2619935 16.1337271,16.3854881 C15.9970755,16.4538139 15.8366844,16.4559127 15.6982918,16.3911859 L8.66072353,13.0996871 C8.52572993,13.03655 8.3696089,13.036921 8.23491684,13.1006988 L1.30881163,16.3802669 C1.05923433,16.4984438 0.761110637,16.3919227 0.642933722,16.1423454 C0.577193218,16.0035083 0.578921114,15.8421578 0.647619801,15.7047604 L8.0527864,0.894427191 C8.17628103,0.647437942 8.47661755,0.547325769 8.7236068,0.670820393 C8.8203705,0.719202244 8.89883174,0.79766349 8.9472136,0.894427191 Z" id="path-2"></path>
        <filter x="-49.4%" y="-49.3%" width="198.9%" height="198.9%" filterUnits="objectBoundingBox" id="filter-3">
            <feOffset dx="0" dy="0" in="SourceAlpha" result="shadowOffsetOuter1"></feOffset>
            <feGaussianBlur stdDeviation="3" in="shadowOffsetOuter1" result="shadowBlurOuter1"></feGaussianBlur>
            <feComposite in="shadowBlurOuter1" in2="SourceAlpha" operator="out" result="shadowBlurOuter1"></feComposite>
            <feColorMatrix values="0 0 0 0 0.305882353   0 0 0 0 0.996078431   0 0 0 0 0.976470588  0 0 0 1 0" type="matrix" in="shadowBlurOuter1"></feColorMatrix>
        </filter>
        <filter x="-49.4%" y="-49.3%" width="198.9%" height="198.9%" filterUnits="objectBoundingBox" id="filter-4">
            <feGaussianBlur stdDeviation="3" in="SourceAlpha" result="shadowBlurInner1"></feGaussianBlur>
            <feOffset dx="0" dy="0" in="shadowBlurInner1" result="shadowOffsetInner1"></feOffset>
            <feComposite in="shadowOffsetInner1" in2="SourceAlpha" operator="arithmetic" k2="-1" k3="1" result="shadowInnerInner1"></feComposite>
            <feColorMatrix values="0 0 0 0 0.305882353   0 0 0 0 0.996078431   0 0 0 0 0.976470588  0 0 0 1 0" type="matrix" in="shadowInnerInner1"></feColorMatrix>
        </filter>
        <path d="M8.9472136,0.894427191 L16.3573339,15.7146677 C16.4808285,15.961657 16.3807163,16.2619935 16.1337271,16.3854881 C15.9970755,16.4538139 15.8366844,16.4559127 15.6982918,16.3911859 L8.66072353,13.0996871 C8.52572993,13.03655 8.3696089,13.036921 8.23491684,13.1006988 L1.30881163,16.3802669 C1.05923433,16.4984438 0.761110637,16.3919227 0.642933722,16.1423454 C0.577193218,16.0035083 0.578921114,15.8421578 0.647619801,15.7047604 L8.0527864,0.894427191 C8.17628103,0.647437942 8.47661755,0.547325769 8.7236068,0.670820393 C8.8203705,0.719202244 8.89883174,0.79766349 8.9472136,0.894427191 Z" id="path-5"></path>
        <filter x="-2.4%" y="-2.2%" width="104.8%" height="104.8%" filterUnits="objectBoundingBox" id="filter-6">
            <feGaussianBlur stdDeviation="1" in="SourceAlpha" result="shadowBlurInner1"></feGaussianBlur>
            <feOffset dx="0" dy="0" in="shadowBlurInner1" result="shadowOffsetInner1"></feOffset>
            <feComposite in="shadowOffsetInner1" in2="SourceAlpha" operator="arithmetic" k2="-1" k3="1" result="shadowInnerInner1"></feComposite>
            <feColorMatrix values="0 0 0 0 0.305882353   0 0 0 0 0.996078431   0 0 0 0 0.976470588  0 0 0 1 0" type="matrix" in="shadowInnerInner1"></feColorMatrix>
        </filter>
    </defs>
    <g id="页面-1" stroke="none" stroke-width="1" fill="none" fill-rule="evenodd">
        <g id="切图" transform="translate(-415.000000, -610.000000)">
            <g id="地标指示" transform="translate(421.000000, 616.000000)">
                <g id="三角形" transform="translate(8.500000, 8.500000) rotate(-180.000000) translate(-8.500000, -8.500000) ">
                    <use fill="black" fill-opacity="1" filter="url(#filter-3)" xlink:href="#path-2"></use>
                    <use fill="#002B3A" fill-rule="evenodd" xlink:href="#path-2"></use>
                    <use fill="black" fill-opacity="1" filter="url(#filter-4)" xlink:href="#path-2"></use>
                    <path stroke="url(#linearGradient-1)" stroke-width="0.5" d="M8.264,1.03 L16.1337271,15.8264711 C16.1646007,15.8882184 16.1675235,15.9566341 16.1472911,16.0173315 C16.1374875,16.0467422 16.1222474,16.0743408 16.1021163,16.0984904 L16.1021163,16.0984904 L8.65997593,12.8262596 L1.20182251,16.154317 C1.13942819,16.1838613 1.07096556,16.1853182 1.01071546,16.1637906 C0.982304642,16.1536393 0.955719937,16.1383771 0.932458727,16.1185392 L0.932458727,16.1185392 L8.264,1.03 Z" stroke-linejoin="square"></path>
                </g>
                <g id="三角形" transform="translate(8.500000, 8.500000) rotate(-180.000000) translate(-8.500000, -8.500000) " fill="black" fill-opacity="1">
                    <use filter="url(#filter-6)" xlink:href="#path-5"></use>
                </g>
            </g>
        </g>
    </g>
</svg>