<svg t="1634818656256" class="icon" viewBox="0 0 1024 1024" version="1.1" xmlns="http://www.w3.org/2000/svg" p-id="5848" width="16" height="16"><path d="M182.857143 731.428571a36.571429 36.571429 0 0 1 36.571428 37.302858v145.554285a36.571429 36.571429 0 1 1-73.142857 0L146.212571 804.571429H36.571429a36.571429 36.571429 0 1 1 0-73.142858z m804.571428 0l6.582858 0.585143a36.571429 36.571429 0 0 1 29.988571 35.986286l-0.585143 6.582857a36.571429 36.571429 0 0 1-35.986286 29.988572h-109.787428L877.714286 914.285714l-0.585143 6.582857A36.571429 36.571429 0 0 1 804.571429 914.285714v-146.285714l0.585142-6.582857A36.571429 36.571429 0 0 1 841.142857 731.428571h146.285714z m-219.428571-438.857142a36.571429 36.571429 0 0 1 36.571429 36.571428v365.714286a36.571429 36.571429 0 0 1-36.571429 36.571428h-512a36.571429 36.571429 0 0 1-36.571429-36.571428v-365.714286a36.571429 36.571429 0 0 1 36.571429-36.571428h512zM731.428571 365.714286H292.571429v292.571428h438.857142V365.714286zM182.857143 73.142857a36.571429 36.571429 0 0 1 36.571428 36.571429v145.554285a36.571429 36.571429 0 0 1-36.571428 37.302858h-146.285714a36.571429 36.571429 0 0 1 0-73.142858h109.641142L146.285714 109.714286a36.571429 36.571429 0 0 1 36.571429-36.571429z m658.285714 0a36.571429 36.571429 0 0 1 35.986286 29.988572L877.714286 109.714286 877.641143 219.428571H987.428571a36.571429 36.571429 0 0 1 35.986286 29.988572L1024 256a36.571429 36.571429 0 0 1-29.988571 35.986286L987.428571 292.571429h-146.285714a36.571429 36.571429 0 0 1-35.986286-29.988572L804.571429 256v-146.285714a36.571429 36.571429 0 0 1 36.571428-36.571429z" p-id="5849" fill="#35bdbe"></path></svg>