<svg t="1634818583210" class="icon" viewBox="0 0 1024 1024" version="1.1" xmlns="http://www.w3.org/2000/svg" p-id="9481" width="16" height="16"><path d="M159.03 636.36H97V927h290.41v-62.35H159.03zM864.97 864.65H636.59V927H927V636.36h-62.03zM636.59 97v62.36h228.38v228.28H927V97zM159.03 159.36h228.38V97H97v290.64h62.03z" p-id="9482" fill="#35bdbe"></path><path d="M374.24 235.56H235.62l0.35 138.57 44.36-44.69L383.6 432.67l49.21-48.84L329.54 280.6zM640.75 432.67l102.92-103.23 44.71 44.69V235.56H649.76l45.05 45.04-103.28 102.88zM280.33 694.56l-44.36-44.69-0.35 138.57h138.62l-44.7-45.04 103.27-102.88-49.21-49.19zM649.76 788.44h138.62V649.87l-44.71 44.69-102.92-102.89-49.22 48.85L694.81 743.4z" p-id="9483" fill="#35bdbe"></path></svg>