<?xml version="1.0" encoding="UTF-8"?>
<svg width="45px" height="44px" viewBox="0 0 45 44" version="1.1" xmlns="http://www.w3.org/2000/svg" xmlns:xlink="http://www.w3.org/1999/xlink">
    <title>nor住院</title>
    <defs>
        <linearGradient x1="50%" y1="0%" x2="50%" y2="99.8306381%" id="linearGradient-1">
            <stop stop-color="#4EFEF9" stop-opacity="0" offset="0%"></stop>
            <stop stop-color="#4A9AEC" offset="100%"></stop>
        </linearGradient>
        <linearGradient x1="50%" y1="0%" x2="50%" y2="59.9662632%" id="linearGradient-2">
            <stop stop-color="#A1DFFF" offset="0%"></stop>
            <stop stop-color="#4A9AEC" stop-opacity="0" offset="100%"></stop>
        </linearGradient>
        <linearGradient x1="50%" y1="0%" x2="50%" y2="99.4400131%" id="linearGradient-3">
            <stop stop-color="#FFFFFF" offset="0%"></stop>
            <stop stop-color="#4A9AEC" offset="100%"></stop>
        </linearGradient>
    </defs>
    <g id="页面-1" stroke="none" stroke-width="1" fill="none" fill-rule="evenodd">
        <g id="切图" transform="translate(-1816.000000, -1531.000000)">
            <g id="nor住院" transform="translate(1816.242490, 1531.000000)">
                <circle id="椭圆形" fill="url(#linearGradient-1)" opacity="0.6" cx="22" cy="22" r="22"></circle>
                <circle id="椭圆形" stroke="url(#linearGradient-2)" stroke-width="0.5" cx="22" cy="22" r="21.75"></circle>
                <path d="M21.5,9.17831389 L28.422,14.3563139 L32,14.3569413 C33.6568542,14.3569413 35,15.7000871 35,17.3569413 L35,32 C35,32.5522847 34.5522847,33 34,33 L9,33 C8.44771525,33 8,32.5522847 8,32 L8,17.3569413 C8,15.7000871 9.34314575,14.3569413 11,14.3569413 L14.577,14.3563139 L21.5,9.17831389 Z M22,17 C21.4477153,17 21,17.4477153 21,18 L21,18 L20.999,22 L17,22 C16.4477153,22 16,22.4477153 16,23 C16,23.5522847 16.4477153,24 17,24 L17,24 L20.999,24 L21,28 C21,28.5522847 21.4477153,29 22,29 C22.5522847,29 23,28.5522847 23,28 L23,28 L22.999,24 L27,24 C27.5522847,24 28,23.5522847 28,23 C28,22.4477153 27.5522847,22 27,22 L27,22 L22.999,22 L23,18 C23,17.4477153 22.5522847,17 22,17 Z M22.0989868,5.22453708 L29.6279797,10.8564042 C30.0702266,11.1872155 30.1605631,11.813903 29.8297518,12.2561499 C29.8292461,12.2568259 29.8287396,12.2575013 29.8282322,12.258176 L29.7841081,12.3168531 C29.4527721,12.7574705 28.8273371,12.846818 28.385882,12.516599 L21.5,7.36579429 L14.614118,12.516599 C14.1726629,12.846818 13.5472279,12.7574705 13.2158919,12.3168531 L13.1717678,12.258176 C12.8398375,11.8167683 12.9285865,11.1898541 13.3699941,10.8579238 C13.3706689,10.8574164 13.3713443,10.8569098 13.3720203,10.8564042 L20.9010132,5.22453708 C21.2561553,4.95888225 21.7438447,4.95888225 22.0989868,5.22453708 Z" id="形状结合" fill="url(#linearGradient-3)"></path>
            </g>
        </g>
    </g>
</svg>