<?xml version="1.0" encoding="UTF-8"?>
<svg width="51px" height="50px" viewBox="0 0 51 50" version="1.1" xmlns="http://www.w3.org/2000/svg" xmlns:xlink="http://www.w3.org/1999/xlink">
    <title>sel门诊</title>
    <defs>
        <linearGradient x1="50%" y1="0%" x2="50%" y2="99.8306381%" id="linearGradient-1">
            <stop stop-color="#4EFEF9" stop-opacity="0" offset="0%"></stop>
            <stop stop-color="#4ECAFE" offset="100%"></stop>
        </linearGradient>
        <linearGradient x1="50%" y1="0%" x2="50%" y2="47.1871724%" id="linearGradient-2">
            <stop stop-color="#4EFEF9" offset="0%"></stop>
            <stop stop-color="#4A9AEC" stop-opacity="0" offset="100%"></stop>
        </linearGradient>
        <linearGradient x1="50%" y1="0%" x2="50%" y2="100%" id="linearGradient-3">
            <stop stop-color="#FFFFFF" offset="0%"></stop>
            <stop stop-color="#A9FFF4" offset="100%"></stop>
        </linearGradient>
    </defs>
    <g id="页面-1" stroke="none" stroke-width="1" fill="none" fill-rule="evenodd">
        <g id="切图" transform="translate(-1332.000000, -1525.000000)">
            <g id="sel门诊" transform="translate(1332.742843, 1525.000000)">
                <circle id="椭圆形备份" fill="url(#linearGradient-1)" opacity="0.6" cx="25" cy="25" r="25"></circle>
                <circle id="椭圆形备份-8" stroke="url(#linearGradient-2)" cx="25" cy="25" r="24.5"></circle>
                <path d="M29.0559967,10.0189694 L40.1080951,21.0710678 C42.4512408,23.4142136 42.4512408,27.2132034 40.1080951,29.5563492 L29.0559967,40.6084476 C26.712851,42.9515933 22.9138611,42.9515933 20.5707153,40.6084476 L9.51861698,29.5563492 C7.17547123,27.2132034 7.17547123,23.4142136 9.51861698,21.0710678 L20.5707153,10.0189694 C22.9138611,7.67582369 26.712851,7.67582369 29.0559967,10.0189694 Z M24.6425047,17 L24.3567904,17 C23.8045056,17 23.3567904,17.4477153 23.3567904,18 L23.3567904,18 L23.3566475,23.857 L17.4996475,23.8571429 C16.9473628,23.8571429 16.4996475,24.3048581 16.4996475,24.8571429 L16.4996475,24.8571429 L16.4996475,25.1428571 C16.4996475,25.6951419 16.9473628,26.1428571 17.4996475,26.1428571 L17.4996475,26.1428571 L23.3566475,26.142 L23.3567904,32 C23.3567904,32.5522847 23.8045056,33 24.3567904,33 L24.3567904,33 L24.6425047,33 C25.1947894,33 25.6425047,32.5522847 25.6425047,32 L25.6425047,32 L25.6416475,26.142 L31.4996475,26.1428571 C32.0519323,26.1428571 32.4996475,25.6951419 32.4996475,25.1428571 L32.4996475,25.1428571 L32.4996475,24.8571429 C32.4996475,24.3048581 32.0519323,23.8571429 31.4996475,23.8571429 L31.4996475,23.8571429 L25.6416475,23.857 L25.6425047,18 C25.6425047,17.4477153 25.1947894,17 24.6425047,17 L24.6425047,17 Z" id="形状结合" fill="url(#linearGradient-3)"></path>
            </g>
        </g>
    </g>
</svg>