<?xml version="1.0" encoding="UTF-8"?>
<svg width="45px" height="44px" viewBox="0 0 45 44" version="1.1" xmlns="http://www.w3.org/2000/svg" xmlns:xlink="http://www.w3.org/1999/xlink">
    <title>nor门诊备份</title>
    <defs>
        <linearGradient x1="50%" y1="0%" x2="50%" y2="59.9662632%" id="linearGradient-1">
            <stop stop-color="#A1DFFF" offset="0%"></stop>
            <stop stop-color="#4A9AEC" stop-opacity="0" offset="100%"></stop>
        </linearGradient>
        <linearGradient x1="50%" y1="0%" x2="50%" y2="99.8306381%" id="linearGradient-2">
            <stop stop-color="#4EFEF9" stop-opacity="0" offset="0%"></stop>
            <stop stop-color="#4A9AEC" offset="100%"></stop>
        </linearGradient>
        <linearGradient x1="50%" y1="100%" x2="50%" y2="0%" id="linearGradient-3">
            <stop stop-color="#4A9AEC" offset="0%"></stop>
            <stop stop-color="#FFFFFF" offset="100%"></stop>
        </linearGradient>
    </defs>
    <g id="页面-1" stroke="none" stroke-width="1" fill="none" fill-rule="evenodd">
        <g id="切图" transform="translate(-1750.000000, -1531.000000)">
            <g id="nor门诊备份" transform="translate(1750.242490, 1531.000000)">
                <circle id="椭圆形" stroke="url(#linearGradient-1)" stroke-width="0.5" cx="22" cy="22" r="21.75"></circle>
                <circle id="椭圆形备份-9" fill="url(#linearGradient-2)" opacity="0.6" cx="22" cy="22" r="22"></circle>
                <path d="M25.1421356,8.17157288 L36.4558441,19.4852814 C38.0179413,21.0473785 38.0179413,23.5800385 36.4558441,25.1421356 L25.1421356,36.4558441 C23.5800385,38.0179413 21.0473785,38.0179413 19.4852814,36.4558441 L8.17157288,25.1421356 C6.60947571,23.5800385 6.60947571,21.0473785 8.17157288,19.4852814 L19.4852814,8.17157288 C21.0473785,6.60947571 23.5800385,6.60947571 25.1421356,8.17157288 Z M22.3137085,15.3137085 C21.7614237,15.3137085 21.3137085,15.7614237 21.3137085,16.3137085 L21.3137085,16.3137085 L21.3137085,21.3127085 L16.3137085,21.3137085 C15.7614237,21.3137085 15.3137085,21.7614237 15.3137085,22.3137085 C15.3137085,22.8659932 15.7614237,23.3137085 16.3137085,23.3137085 L16.3137085,23.3137085 L21.3137085,23.3127085 L21.3137085,28.3137085 C21.3137085,28.8659932 21.7614237,29.3137085 22.3137085,29.3137085 C22.8659932,29.3137085 23.3137085,28.8659932 23.3137085,28.3137085 L23.3137085,28.3137085 L23.3137085,23.3137085 L28.3137085,23.3137085 C28.8659932,23.3137085 29.3137085,22.8659932 29.3137085,22.3137085 C29.3137085,21.7614237 28.8659932,21.3137085 28.3137085,21.3137085 L28.3137085,21.3137085 L23.3137085,21.3137085 L23.3137085,16.3137085 C23.3137085,15.7614237 22.8659932,15.3137085 22.3137085,15.3137085 Z" id="形状结合" fill="url(#linearGradient-3)"></path>
            </g>
        </g>
    </g>
</svg>