<?xml version="1.0" encoding="UTF-8"?>
<svg width="66px" height="66px" viewBox="0 0 66 66" version="1.1" xmlns="http://www.w3.org/2000/svg" xmlns:xlink="http://www.w3.org/1999/xlink">
    <title>住院次均费用</title>
    <defs>
        <linearGradient x1="50%" y1="17.3125999%" x2="50%" y2="100%" id="linearGradient-1">
            <stop stop-color="#61FDFF" stop-opacity="0" offset="0%"></stop>
            <stop stop-color="#61FDFF" offset="100%"></stop>
        </linearGradient>
        <linearGradient x1="50%" y1="31.9574956%" x2="50%" y2="100%" id="linearGradient-2">
            <stop stop-color="#3DECEF" stop-opacity="0" offset="0%"></stop>
            <stop stop-color="#42ECEE" stop-opacity="0.32" offset="100%"></stop>
        </linearGradient>
        <path d="M9.38063765,45 L56.6193623,45 C57.0270065,45 57.5887955,45.2927369 57.870253,45.6538462 L65.9398631,61.3461538 C66.0297992,61.7072631 65.6504792,62 65.0965285,62 L0.903471482,62 C0.349520756,62 -0.0297991932,61.7072631 0.0601369361,61.3461538 L8.12974704,45.6538462 C8.41120446,45.2927369 8.97299348,45 9.38063765,45 Z" id="path-3"></path>
        <filter x="-3.0%" y="-11.8%" width="106.1%" height="123.5%" filterUnits="objectBoundingBox" id="filter-4">
            <feGaussianBlur stdDeviation="1.5" in="SourceAlpha" result="shadowBlurInner1"></feGaussianBlur>
            <feOffset dx="0" dy="-1" in="shadowBlurInner1" result="shadowOffsetInner1"></feOffset>
            <feComposite in="shadowOffsetInner1" in2="SourceAlpha" operator="arithmetic" k2="-1" k3="1" result="shadowInnerInner1"></feComposite>
            <feColorMatrix values="0 0 0 0 0.258823529   0 0 0 0 0.925490196   0 0 0 0 0.933333333  0 0 0 0.15 0" type="matrix" in="shadowInnerInner1"></feColorMatrix>
        </filter>
        <filter x="-8.1%" y="-300.0%" width="116.2%" height="650.0%" filterUnits="objectBoundingBox" id="filter-5">
            <feGaussianBlur stdDeviation="1" in="SourceGraphic"></feGaussianBlur>
        </filter>
        <filter x="-58.5%" y="-480.0%" width="217.1%" height="1060.0%" filterUnits="objectBoundingBox" id="filter-6">
            <feGaussianBlur stdDeviation="8" in="SourceGraphic"></feGaussianBlur>
        </filter>
        <path d="M46,20 C47.1045695,20 48,20.8954305 48,22 L48,52 C48,53.1045695 47.1045695,54 46,54 L20,54 C18.8954305,54 18,53.1045695 18,52 L18,22 C18,20.8954305 18.8954305,20 20,20 L25,20 L25,21 C25,23.1421954 26.6839685,24.8910789 28.8003597,24.9951047 L29,25 L37,25 C39.209139,25 41,23.209139 41,21 L41,21 L41,20 L46,20 Z" id="path-7"></path>
        <filter x="-31.7%" y="-27.9%" width="163.3%" height="155.9%" filterUnits="objectBoundingBox" id="filter-8">
            <feGaussianBlur stdDeviation="9.5" in="SourceAlpha" result="shadowBlurInner1"></feGaussianBlur>
            <feOffset dx="0" dy="0" in="shadowBlurInner1" result="shadowOffsetInner1"></feOffset>
            <feComposite in="shadowOffsetInner1" in2="SourceAlpha" operator="arithmetic" k2="-1" k3="1" result="shadowInnerInner1"></feComposite>
            <feColorMatrix values="0 0 0 0 0.258823529   0 0 0 0 0.925490196   0 0 0 0 0.933333333  0 0 0 0.5 0" type="matrix" in="shadowInnerInner1" result="shadowMatrixInner1"></feColorMatrix>
            <feGaussianBlur stdDeviation="1.5" in="SourceAlpha" result="shadowBlurInner2"></feGaussianBlur>
            <feOffset dx="0" dy="1" in="shadowBlurInner2" result="shadowOffsetInner2"></feOffset>
            <feComposite in="shadowOffsetInner2" in2="SourceAlpha" operator="arithmetic" k2="-1" k3="1" result="shadowInnerInner2"></feComposite>
            <feColorMatrix values="0 0 0 0 0.258823529   0 0 0 0 0.925490196   0 0 0 0 0.933333333  0 0 0 1 0" type="matrix" in="shadowInnerInner2" result="shadowMatrixInner2"></feColorMatrix>
            <feGaussianBlur stdDeviation="1.5" in="SourceAlpha" result="shadowBlurInner3"></feGaussianBlur>
            <feOffset dx="0" dy="-1" in="shadowBlurInner3" result="shadowOffsetInner3"></feOffset>
            <feComposite in="shadowOffsetInner3" in2="SourceAlpha" operator="arithmetic" k2="-1" k3="1" result="shadowInnerInner3"></feComposite>
            <feColorMatrix values="0 0 0 0 0.290196078   0 0 0 0 0.603921569   0 0 0 0 0.925490196  0 0 0 1 0" type="matrix" in="shadowInnerInner3" result="shadowMatrixInner3"></feColorMatrix>
            <feMerge>
                <feMergeNode in="shadowMatrixInner1"></feMergeNode>
                <feMergeNode in="shadowMatrixInner2"></feMergeNode>
                <feMergeNode in="shadowMatrixInner3"></feMergeNode>
            </feMerge>
        </filter>
        <linearGradient x1="25.7743397%" y1="0%" x2="57.1926359%" y2="71.3985745%" id="linearGradient-9">
            <stop stop-color="#61FDFF" offset="0%"></stop>
            <stop stop-color="#4A9AEC" offset="100%"></stop>
        </linearGradient>
        <linearGradient x1="0%" y1="46.875%" x2="64.8450772%" y2="51.3374109%" id="linearGradient-10">
            <stop stop-color="#61FDFF" offset="0%"></stop>
            <stop stop-color="#4A9AEC" offset="100%"></stop>
        </linearGradient>
    </defs>
    <g id="页面-1" stroke="none" stroke-width="1" fill="none" fill-rule="evenodd">
        <g id="切图" transform="translate(-29.000000, -322.000000)">
            <g id="住院次均费用" transform="translate(29.000000, 324.000000)">
                <rect id="矩形" fill="url(#linearGradient-1)" opacity="0.1" x="0" y="0" width="66" height="62" rx="0.5"></rect>
                <g id="矩形">
                    <use fill="black" fill-opacity="1" filter="url(#filter-4)" xlink:href="#path-3"></use>
                    <path stroke="url(#linearGradient-2)" stroke-width="0.5" d="M56.6193623,45.25 C56.9578479,45.25 57.418014,45.4937608 57.6592323,45.7901598 L57.6592323,45.7901598 L65.6540196,61.3369658 C65.4440609,61.6707899 65.292029,61.75 65.0965285,61.75 L65.0965285,61.75 L0.903471482,61.75 L8.34233135,45.788243 C8.58397017,45.4927106 9.0428821,45.25 9.38063765,45.25 L9.38063765,45.25 Z" stroke-linejoin="square"></path>
                </g>
                <path d="M51,61.25 C51,61.3727299 37.5981817,61.5 31.1472725,61.5 C25.5981817,61.5 14,61.3880712 14,61.25 C14,61.1272701 25.6277787,61 31.1916681,61 C37.6277787,61 51,61.1119288 51,61.25 Z" id="直线-4" fill="#61FDFF" fill-rule="nonzero" filter="url(#filter-5)"></path>
                <ellipse id="椭圆形" fill-opacity="0.65" fill="#42ECEE" filter="url(#filter-6)" cx="32.5" cy="55.5" rx="20.5" ry="2.5"></ellipse>
                <g id="形状结合" fill="black" fill-opacity="1">
                    <use filter="url(#filter-8)" xlink:href="#path-7"></use>
                </g>
                <path d="M37.7131568,31.8508172 L38.5323089,32.4243936 C38.7585115,32.5827824 38.8134855,32.8945553 38.6550967,33.1207578 L35.238,37.9993503 L38.5,38 C38.7761424,38 39,38.2238576 39,38.5 L39,39.5 C39,39.7761424 38.7761424,40 38.5,40 L33.999,39.9993503 L33.999,41.9993503 L38.5,42 C38.7761424,42 39,42.2238576 39,42.5 L39,43.5 C39,43.7761424 38.7761424,44 38.5,44 L33.999,43.9993503 L34,48.5 C34,48.7761424 33.7761424,49 33.5,49 L32.5,49 C32.2238576,49 32,48.7761424 32,48.5 L31.999,43.9993503 L27.5,44 C27.2238576,44 27,43.7761424 27,43.5 L27,42.5 C27,42.2238576 27.2238576,42 27.5,42 L31.999,41.9993503 L31.999,39.9993503 L27.5,40 C27.2238576,40 27,39.7761424 27,39.5 L27,38.5 C27,38.2238576 27.2238576,38 27.5,38 L30.761,37.9993503 L27.3449033,33.1207578 C27.1865145,32.8945553 27.2414885,32.5827824 27.4676911,32.4243936 L28.2868432,31.8508172 C28.5130457,31.6924284 28.8248186,31.7474024 28.9832074,31.973605 L32.9995481,37.7103091 L37.0167926,31.973605 C37.1751814,31.7474024 37.4869543,31.6924284 37.7131568,31.8508172 Z" id="形状结合" fill="url(#linearGradient-9)"></path>
                <rect id="矩形" fill="url(#linearGradient-10)" x="29" y="20" width="8" height="2" rx="1"></rect>
            </g>
            <rect id="住院次均费用" x="29" y="322" width="66" height="66" rx="0.5"></rect>
        </g>
    </g>
</svg>