<?xml version="1.0" encoding="UTF-8"?>
<svg width="178px" height="66px" viewBox="0 0 178 66" version="1.1" xmlns="http://www.w3.org/2000/svg" xmlns:xlink="http://www.w3.org/1999/xlink">
    <title>医院总人数</title>
    <defs>
        <path d="M148,24.5 C148,38.0311273 114.869333,49 74,49 C33.1306667,49 0,38.0311273 0,24.5 C0,10.9688727 33.1306667,0 74,0 C114.869333,0 148,10.9688727 148,24.5" id="path-1"></path>
        <filter x="-1.4%" y="-4.1%" width="102.7%" height="108.2%" filterUnits="objectBoundingBox" id="filter-2">
            <feGaussianBlur stdDeviation="1.5" in="SourceAlpha" result="shadowBlurInner1"></feGaussianBlur>
            <feOffset dx="0" dy="-1" in="shadowBlurInner1" result="shadowOffsetInner1"></feOffset>
            <feComposite in="shadowOffsetInner1" in2="SourceAlpha" operator="arithmetic" k2="-1" k3="1" result="shadowInnerInner1"></feComposite>
            <feColorMatrix values="0 0 0 0 0.0666666667   0 0 0 0 0.749019608   0 0 0 0 1  0 0 0 1 0" type="matrix" in="shadowInnerInner1"></feColorMatrix>
        </filter>
        <linearGradient x1="93.2362454%" y1="48.4201141%" x2="6.76375844%" y2="48.4201141%" id="linearGradient-3">
            <stop stop-color="#35BDBE" offset="0%"></stop>
            <stop stop-color="#11BFFF" offset="54.2395105%"></stop>
            <stop stop-color="#61FDFF" offset="73.7024694%"></stop>
            <stop stop-color="#61FDFF" offset="86.404611%"></stop>
            <stop stop-color="#35BDBE" offset="100%"></stop>
        </linearGradient>
        <linearGradient x1="47.9350194%" y1="48.4201141%" x2="14.8058816%" y2="48.4201141%" id="linearGradient-4">
            <stop stop-color="#0A3168" stop-opacity="0" offset="0%"></stop>
            <stop stop-color="#42ECEE" offset="48.5959353%"></stop>
            <stop stop-color="#0A3168" stop-opacity="0" offset="100%"></stop>
        </linearGradient>
        <filter x="-10.1%" y="-60.0%" width="120.3%" height="220.0%" filterUnits="objectBoundingBox" id="filter-5">
            <feGaussianBlur stdDeviation="5" in="SourceGraphic"></feGaussianBlur>
        </filter>
        <linearGradient x1="100.126769%" y1="49.9967963%" x2="-0.125535424%" y2="50.0089049%" id="linearGradient-6">
            <stop stop-color="#0A3168" stop-opacity="0" offset="0%"></stop>
            <stop stop-color="#61FDFF" offset="48.3746722%"></stop>
            <stop stop-color="#0A3168" stop-opacity="0" offset="100%"></stop>
        </linearGradient>
        <linearGradient x1="100.126769%" y1="49.9997833%" x2="0.868552928%" y2="50.0005943%" id="linearGradient-7">
            <stop stop-color="#11BFFF" stop-opacity="0" offset="0%"></stop>
            <stop stop-color="#42ECEE" offset="47.5469843%"></stop>
            <stop stop-color="#0A3168" stop-opacity="0" offset="100%"></stop>
        </linearGradient>
        <filter x="-16.0%" y="-399.7%" width="132.0%" height="899.4%" filterUnits="objectBoundingBox" id="filter-8">
            <feGaussianBlur stdDeviation="4" in="SourceGraphic"></feGaussianBlur>
        </filter>
        <linearGradient x1="100.126769%" y1="49.9997834%" x2="0.868552928%" y2="50.0005939%" id="linearGradient-9">
            <stop stop-color="#11BFFF" stop-opacity="0" offset="0%"></stop>
            <stop stop-color="#FFFFFF" offset="47.5469843%"></stop>
            <stop stop-color="#0A3168" stop-opacity="0" offset="100%"></stop>
        </linearGradient>
        <filter x="-6.0%" y="-150.0%" width="112.0%" height="400.0%" filterUnits="objectBoundingBox" id="filter-10">
            <feGaussianBlur stdDeviation="1" in="SourceGraphic"></feGaussianBlur>
        </filter>
        <linearGradient x1="50%" y1="54.8512328%" x2="50%" y2="105.432058%" id="linearGradient-11">
            <stop stop-color="#35BDBE" stop-opacity="0.0258686626" offset="0%"></stop>
            <stop stop-color="#42ECEE" offset="100%"></stop>
        </linearGradient>
        <linearGradient x1="50%" y1="15.1710196%" x2="50%" y2="116.447591%" id="linearGradient-12">
            <stop stop-color="#35BDBE" stop-opacity="0" offset="0%"></stop>
            <stop stop-color="#42ECEE" offset="100%"></stop>
        </linearGradient>
        <filter x="-12.7%" y="-108.0%" width="125.4%" height="316.0%" filterUnits="objectBoundingBox" id="filter-13">
            <feGaussianBlur stdDeviation="5" in="SourceGraphic"></feGaussianBlur>
        </filter>
        <radialGradient cx="53.2974053%" cy="100%" fx="53.2974053%" fy="100%" r="982.949363%" gradientTransform="translate(0.532974,1.000000),scale(0.081081,1.000000),translate(-0.532974,-1.000000)" id="radialGradient-14">
            <stop stop-color="#61FDFF" offset="0%"></stop>
            <stop stop-color="#0A3654" offset="100%"></stop>
            <stop stop-color="#022444" stop-opacity="0" offset="100%"></stop>
        </radialGradient>
    </defs>
    <g id="页面-1" stroke="none" stroke-width="1" fill="none" fill-rule="evenodd">
        <g id="切图" transform="translate(-43.000000, -645.000000)">
            <g id="医院总人数" transform="translate(58.000000, 645.000000)">
                <g id="Fill-4" opacity="0.390216206" fill="black" fill-opacity="1">
                    <use filter="url(#filter-2)" xlink:href="#path-1"></use>
                </g>
                <path d="M148,26.6756757 C148,40.1097789 114.869333,51 74,51 C33.1306667,51 0,40.1097789 0,26.6756757 L0.00694213182,26.3385139 C0.554906293,39.6912055 33.4725933,50.4594595 74,50.4594595 C114.869333,50.4594595 148,39.5087371 148,26 L147.99303,26.3383592 C147.997672,26.450616 148,26.5630565 148,26.6756757 Z" id="形状结合" fill="url(#linearGradient-3)" opacity="0.526617006"></path>
                <path d="M148,26.6756757 C148,40.1097789 114.869333,51 74,51 C33.1306667,51 0,40.1097789 0,26.6756757 L0.00694213182,26.3385139 C0.554906293,39.6912055 33.4725933,50.4594595 74,50.4594595 C114.869333,50.4594595 148,39.5087371 148,26 L147.99303,26.3383592 C147.997672,26.450616 148,26.5630565 148,26.6756757 Z" id="形状结合" fill="url(#linearGradient-4)" filter="url(#filter-5)"></path>
                <path d="M139,23.4684805 C139,34.2555612 109.898739,43 74,43 C38.1012613,43 9,34.2555612 9,23.4684805 C9,23.311883 9.00613301,23.155716 9.01833079,23 C9.84572624,33.6534539 38.6220146,42.2123503 74,42.2123503 C109.377985,42.2123503 138.154274,33.6534539 138.981697,23.0001026 C138.993867,23.155716 139,23.311883 139,23.4684805 Z" id="形状结合" fill="url(#linearGradient-6)"></path>
                <path d="M74.4999134,43 C60.5482174,43 47.6169185,41.8905159 36.99924,39.9999862 C47.9337987,41.5264918 60.769935,42.4055518 74.4999134,42.4055518 C88.2326652,42.4055518 101.071214,41.5261366 112.006592,39.9990795 C101.387265,41.8901421 88.4539596,43 74.4999134,43 Z" id="形状结合" fill="url(#linearGradient-7)" filter="url(#filter-8)"></path>
                <path d="M75.0001637,43 C66.1574764,43 57.7178276,42.2896972 49.9995428,41.0001293 C57.9495906,41.6645566 66.3351743,42.0200676 75.0001637,42.0200676 C83.6651531,42.0200676 92.0507369,41.6645566 100.000793,40.9999337 C92.2824999,42.2896972 83.8428511,43 75.0001637,43 Z" id="形状结合" fill="url(#linearGradient-9)" filter="url(#filter-10)"></path>
                <path d="M74.4491228,12.9110599 C77.2730498,12.9246997 80.0363196,12.9933537 82.7119735,13.1111111 L82.7119735,13.1111111 L89.7684211,7.60060842 C84.8956306,7.23733353 79.7599926,7.02818904 74.4491228,7 L74.4491228,7 L74.4491228,12.9110599 Z M56.2315789,7.60060842 L63.2880265,13.1111111 C65.9636804,12.9933537 68.7269502,12.9246997 71.5508772,12.9110599 L71.5508772,12.9110599 L71.5508772,7 C66.2400074,7.02818904 61.1043694,7.23733353 56.2315789,7.60060842 L56.2315789,7.60060842 Z M86.0421053,13.378359 C88.6164516,13.5243029 91.1031893,13.7144722 93.4686227,13.9444444 L93.4686227,13.9444444 L105.915789,9.71649398 C101.918814,9.05753517 97.5794899,8.51356246 92.9766665,8.11111111 L92.9766665,8.11111111 L86.0421053,13.378359 Z M40.0842105,9.71649398 L52.5313773,13.9444444 C54.8968107,13.7144722 57.3828745,13.5243029 59.9578947,13.378359 L59.9578947,13.378359 L53.0233335,8.11111111 C48.4205101,8.51356246 44.0805126,9.05753517 40.0842105,9.71649398 L40.0842105,9.71649398 Z M36.3578947,10.3333333 L40.0842105,9.5 C38.7999741,9.76344086 37.5628896,10.0430108 36.3578947,10.3333333 L36.3578947,10.3333333 Z M98.0491228,14.6071605 C100.261253,14.9069383 102.346018,15.2404938 104.269901,15.6111111 L104.269901,15.6111111 L119.164912,12.7629877 C116.409805,11.8674074 113.278635,11.0511111 109.840448,10.3333333 L109.840448,10.3333333 L98.0491228,14.6071605 Z M27.2491228,12.7629877 L42.1434633,15.6111111 C44.0680167,15.2404938 46.152782,14.9069383 48.3649123,14.6071605 L48.3649123,14.6071605 L36.5735873,10.3333333 C33.1347302,11.0511111 30.0042306,11.8674074 27.2491228,12.7629877 L27.2491228,12.7629877 Z M109.22807,16.4487652 C110.94742,16.8789223 112.467617,17.3453739 113.768746,17.8333333 L113.768746,17.8333333 L128.273684,16.6369589 C126.813233,15.6870287 124.974392,14.7814584 122.80363,13.9444444 L122.80363,13.9444444 L109.22807,16.4487652 Z M18.1403509,16.6369589 L32.6452887,17.8333333 C33.9464182,17.3453739 35.4666153,16.8789223 37.1859649,16.4487652 L37.1859649,16.4487652 L23.6104052,13.9444444 C21.4396434,14.7814584 19.6014661,15.6870287 18.1403509,16.6369589 L18.1403509,16.6369589 Z M116.680702,19.4628756 C117.552352,20.0088225 118.156937,20.5814116 118.458894,21.1666667 L118.458894,21.1666667 L132,21.1666667 C131.771855,20.209731 131.15452,19.2846785 130.201677,18.3888889 L130.201677,18.3888889 L116.680702,19.4628756 Z M14,21.1666667 L27.5403566,21.1666667 C27.8429981,20.5814116 28.4469391,20.0088225 29.3192982,19.4628756 L29.3192982,19.4628756 L15.797731,18.3888889 C14.8448463,19.2846785 14.2274844,20.209731 14,21.1666667 L14,21.1666667 Z M118.458894,23.1111111 C118.156937,23.6962742 117.552352,24.2683366 116.680702,24.8141976 L116.680702,24.8141976 L130.201677,25.8888889 C131.15452,24.9932401 131.771855,24.0674597 132,23.1111111 L132,23.1111111 L118.458894,23.1111111 Z M14,23.1111111 C14.2274844,24.0674597 14.8448463,24.9932401 15.797731,25.8888889 L15.797731,25.8888889 L29.3192982,24.8141976 C28.4469391,24.2683366 27.8429981,23.6962742 27.5403566,23.1111111 L27.5403566,23.1111111 L14,23.1111111 Z M109.22807,27.5510753 L122.80363,30.0555556 C124.974392,29.2177419 126.813233,28.312724 128.273684,27.3624552 L128.273684,27.3624552 L113.768746,26.1666667 C112.467617,26.6550179 110.94742,27.1205197 109.22807,27.5510753 L109.22807,27.5510753 Z M18.1403509,27.3624552 C19.6014661,28.312724 21.4396434,29.2177419 23.6104052,30.0555556 L23.6104052,30.0555556 L37.1859649,27.5510753 C35.4666153,27.1205197 33.9464182,26.6550179 32.6452887,26.1666667 L32.6452887,26.1666667 L18.1403509,27.3624552 Z M98.0491228,29.6706173 L109.840448,33.9444444 C113.278635,33.2266667 116.409805,32.4099012 119.164912,31.514321 L119.164912,31.514321 L104.269901,28.6666667 C102.346018,29.037284 100.261253,29.3703704 98.0491228,29.6706173 L98.0491228,29.6706173 Z M27.2491228,31.514321 C30.0042306,32.4099012 33.1347302,33.2266667 36.5735873,33.9444444 L36.5735873,33.9444444 L48.3649123,29.6706173 C46.152782,29.3703704 44.0680167,29.037284 42.1434633,28.6666667 L42.1434633,28.6666667 L27.2491228,31.514321 Z M86.0421053,30.8990623 L92.9766665,36.1666667 C97.5794899,35.7641543 101.918814,35.2205414 105.915789,34.5614827 L105.915789,34.5614827 L93.4686227,30.3333333 C91.1031893,30.5628981 88.6164516,30.7526539 86.0421053,30.8990623 L86.0421053,30.8990623 Z M40.0842105,34.5614827 C44.0805126,35.2205414 48.4205101,35.7641543 53.0233335,36.1666667 L53.0233335,36.1666667 L59.9578947,30.8990623 C57.3828745,30.7526539 54.8968107,30.5628981 52.5313773,30.3333333 L52.5313773,30.3333333 L40.0842105,34.5614827 Z M74.4491228,31.0894097 L74.4491228,37 C79.7599926,36.9727183 84.8956306,36.7635582 89.7684211,36.3998016 L89.7684211,36.3998016 L82.7119735,30.8888889 C80.0363196,31.0071098 77.2730498,31.0753142 74.4491228,31.0894097 L74.4491228,31.0894097 Z M56.2315789,36.3998016 C61.1043694,36.7635582 66.2400074,36.9727183 71.5508772,37 L71.5508772,37 L71.5508772,31.0894097 C68.7269502,31.0753142 65.9636804,31.0071098 63.2880265,30.8888889 L63.2880265,30.8888889 L56.2315789,36.3998016 Z" id="Fill-10" fill="url(#linearGradient-11)" opacity="0.825445131"></path>
                <path d="M118.458894,25.1111111 C118.156937,25.6962742 117.552352,26.2683366 116.680702,26.8141976 L130.201677,27.8888889 C131.15452,26.9932401 131.771855,26.0674597 132,25.1111111 L118.458894,25.1111111 Z M14,25.1111111 C14.2274844,26.0674597 14.8448463,26.9932401 15.797731,27.8888889 L29.3192982,26.8141976 C28.4469391,26.2683366 27.8429981,25.6962742 27.5403566,25.1111111 L14,25.1111111 Z M122.80363,32.0555556 C124.974392,31.2177419 126.813233,30.312724 128.273684,29.3624552 L113.768746,28.1666667 C112.467617,28.6550179 110.94742,29.1205197 109.22807,29.5510753 L122.80363,32.0555556 Z M18.1403509,29.3624552 C19.6014661,30.312724 21.4396434,31.2177419 23.6104052,32.0555556 L37.1859649,29.5510753 C35.4666153,29.1205197 33.9464182,28.6550179 32.6452887,28.1666667 L18.1403509,29.3624552 Z M109.840448,35.9444444 C113.278635,35.2266667 116.409805,34.4099012 119.164912,33.514321 L104.269901,30.6666667 C102.346018,31.037284 100.261253,31.3703704 98.0491228,31.6706173 L109.840448,35.9444444 Z M27.2491228,33.514321 C30.0042306,34.4099012 33.1347302,35.2266667 36.5735873,35.9444444 L48.3649123,31.6706173 C46.152782,31.3703704 44.0680167,31.037284 42.1434633,30.6666667 L27.2491228,33.514321 Z M92.9766665,38.1666667 C97.5794899,37.7641543 101.918814,37.2205414 105.915789,36.5614827 L93.4686227,32.3333333 C91.1031893,32.5628981 88.6164516,32.7526539 86.0421053,32.8990623 L92.9766665,38.1666667 Z M40.0842105,36.5614827 C44.0805126,37.2205414 48.4205101,37.7641543 53.0233335,38.1666667 L59.9578947,32.8990623 C57.3828745,32.7526539 54.8968107,32.5628981 52.5313773,32.3333333 L40.0842105,36.5614827 Z M74.4491228,39 C79.7599926,38.9727183 84.8956306,38.7635582 89.7684211,38.3998016 L82.7119735,32.8888889 C80.0363196,33.0071098 77.2730498,33.0753142 74.4491228,33.0894097 L74.4491228,39 Z M56.2315789,38.3998016 C61.1043694,38.7635582 66.2400074,38.9727183 71.5508772,39 L71.5508772,33.0894097 C68.7269502,33.0753142 65.9636804,33.0071098 63.2880265,32.8888889 L56.2315789,38.3998016 Z" id="Fill-10备份" fill="url(#linearGradient-12)" opacity="0.487577217" filter="url(#filter-13)"></path>
                <path d="M74,29 C54.6789041,29 38.8381735,26.805 37.148,24 L37.148,24 C37.0473059,24.165 37,24.33 37,24.5 L37,24.5 C37,27.54 53.5509954,30 74,30 L74,30 C94.4496804,30 111,27.54 111,24.5 L111,24.5 C111,24.33 110.952694,24.165 110.851324,24 L110.851324,24 C109.161826,26.805 93.3210959,29 74,29" id="Fill-14" fill="url(#radialGradient-14)" opacity="0.360760356"></path>
            </g>
        </g>
    </g>
</svg>