<?xml version="1.0" encoding="UTF-8"?>
<svg width="41px" height="23px" viewBox="0 0 41 23" version="1.1" xmlns="http://www.w3.org/2000/svg" xmlns:xlink="http://www.w3.org/1999/xlink">
    <title>总览</title>
    <defs>
        <path d="M20,0 C31.045695,0 40,8.98207574 40,20.0620277 L40,20.0620277 L0,20.0620277 C0,8.98207574 8.954305,0 20,0 Z" id="path-1"></path>
        <filter x="-25.0%" y="-49.8%" width="150.0%" height="199.7%" filterUnits="objectBoundingBox" id="filter-2">
            <feGaussianBlur stdDeviation="10" in="SourceAlpha" result="shadowBlurInner1"></feGaussianBlur>
            <feOffset dx="0" dy="0" in="shadowBlurInner1" result="shadowOffsetInner1"></feOffset>
            <feComposite in="shadowOffsetInner1" in2="SourceAlpha" operator="arithmetic" k2="-1" k3="1" result="shadowInnerInner1"></feComposite>
            <feColorMatrix values="0 0 0 0 0.380392157   0 0 0 0 0.992156863   0 0 0 0 1  0 0 0 0.5 0" type="matrix" in="shadowInnerInner1" result="shadowMatrixInner1"></feColorMatrix>
            <feGaussianBlur stdDeviation="0.5" in="SourceAlpha" result="shadowBlurInner2"></feGaussianBlur>
            <feOffset dx="0" dy="1" in="shadowBlurInner2" result="shadowOffsetInner2"></feOffset>
            <feComposite in="shadowOffsetInner2" in2="SourceAlpha" operator="arithmetic" k2="-1" k3="1" result="shadowInnerInner2"></feComposite>
            <feColorMatrix values="0 0 0 0 0.380392157   0 0 0 0 0.992156863   0 0 0 0 1  0 0 0 0.45580201 0" type="matrix" in="shadowInnerInner2" result="shadowMatrixInner2"></feColorMatrix>
            <feMerge>
                <feMergeNode in="shadowMatrixInner1"></feMergeNode>
                <feMergeNode in="shadowMatrixInner2"></feMergeNode>
            </feMerge>
        </filter>
        <path d="M20,5.01550692 C28.2842712,5.01550692 35,11.7520637 35,20.0620277 L35,20.0620277 L5,20.0620277 C5,11.7520637 11.7157288,5.01550692 20,5.01550692 Z" id="path-3"></path>
        <filter x="-25.0%" y="-49.8%" width="150.0%" height="199.7%" filterUnits="objectBoundingBox" id="filter-4">
            <feGaussianBlur stdDeviation="7.5" in="SourceAlpha" result="shadowBlurInner1"></feGaussianBlur>
            <feOffset dx="0" dy="0" in="shadowBlurInner1" result="shadowOffsetInner1"></feOffset>
            <feComposite in="shadowOffsetInner1" in2="SourceAlpha" operator="arithmetic" k2="-1" k3="1" result="shadowInnerInner1"></feComposite>
            <feColorMatrix values="0 0 0 0 0.380392157   0 0 0 0 0.992156863   0 0 0 0 1  0 0 0 1 0" type="matrix" in="shadowInnerInner1" result="shadowMatrixInner1"></feColorMatrix>
            <feGaussianBlur stdDeviation="1" in="SourceAlpha" result="shadowBlurInner2"></feGaussianBlur>
            <feOffset dx="0" dy="1" in="shadowBlurInner2" result="shadowOffsetInner2"></feOffset>
            <feComposite in="shadowOffsetInner2" in2="SourceAlpha" operator="arithmetic" k2="-1" k3="1" result="shadowInnerInner2"></feComposite>
            <feColorMatrix values="0 0 0 0 0.207843137   0 0 0 0 0.741176471   0 0 0 0 0.745098039  0 0 0 1 0" type="matrix" in="shadowInnerInner2" result="shadowMatrixInner2"></feColorMatrix>
            <feMerge>
                <feMergeNode in="shadowMatrixInner1"></feMergeNode>
                <feMergeNode in="shadowMatrixInner2"></feMergeNode>
            </feMerge>
        </filter>
    </defs>
    <g id="页面-1" stroke="none" stroke-width="1" fill="none" fill-rule="evenodd">
        <g id="切图" transform="translate(-108.000000, -927.000000)">
            <g id="总览" transform="translate(108.580694, 927.265625)">
                <g id="形状结合">
                    <use fill="#000000" fill-rule="evenodd" xlink:href="#path-1"></use>
                    <use fill="black" fill-opacity="1" filter="url(#filter-2)" xlink:href="#path-1"></use>
                </g>
                <g id="形状结合" fill="black" fill-opacity="1">
                    <use filter="url(#filter-4)" xlink:href="#path-3"></use>
                </g>
                <path d="M22.75,10.2209409 C23.0261424,10.2209409 23.25,10.4447985 23.25,10.7209409 L23.25,10.7240423 C23.25,11.0001846 23.0261424,11.2240423 22.75,11.2240423 L18.25,11.2239409 L18.25,15.7395492 C18.25,16.0156916 18.0261424,16.2395492 17.75,16.2395492 C17.4738576,16.2395492 17.25,16.0156916 17.25,15.7395492 L17.25,10.7209409 C17.25,10.4447985 17.4738576,10.2209409 17.75,10.2209409 L22.75,10.2209409 Z" id="形状结合" fill="#FFFFFF" opacity="0.339298692" transform="translate(20.250000, 13.230245) rotate(-315.000000) translate(-20.250000, -13.230245) "></path>
                <path d="M22.75,14.7348971 C23.0261424,14.7348971 23.25,14.9587547 23.25,15.2348971 L23.25,15.2379985 C23.25,15.5141409 23.0261424,15.7379985 22.75,15.7379985 L18.25,15.7378971 L18.25,20.2535054 C18.25,20.5296478 18.0261424,20.7535054 17.75,20.7535054 C17.4738576,20.7535054 17.25,20.5296478 17.25,20.2535054 L17.25,15.2348971 C17.25,14.9587547 17.4738576,14.7348971 17.75,14.7348971 L22.75,14.7348971 Z" id="形状结合备份-3" fill="#FFFFFF" transform="translate(20.250000, 17.744201) rotate(-315.000000) translate(-20.250000, -17.744201) "></path>
            </g>
        </g>
    </g>
</svg>