<?xml version="1.0" encoding="UTF-8"?>
<svg width="16px" height="16px" viewBox="0 0 16 16" version="1.1" xmlns="http://www.w3.org/2000/svg" xmlns:xlink="http://www.w3.org/1999/xlink">
    <title>用户</title>
    <g id="页面-1" stroke="none" stroke-width="1" fill="none" fill-rule="evenodd">
        <g id="切图" transform="translate(-30.000000, -411.000000)">
            <path d="M38,412.181132 C40.209139,412.181132 42,413.955719 42,416.144782 C42,417.572234 41.2385032,418.823445 40.0960913,419.521292 C42.380179,420.434222 44,422.798043 44,425.558452 C44,425.832085 43.7761424,426.053908 43.5,426.053908 C43.2238576,426.053908 43,425.832085 43,425.558452 C43,422.539329 40.7512428,420.108433 38,420.108433 C35.2487572,420.108433 33,422.539329 33,425.558452 C33,425.832085 32.7761424,426.053908 32.5,426.053908 C32.2238576,426.053908 32,425.832085 32,425.558452 C32,422.798043 33.619821,420.434222 35.9042869,419.520742 C34.7614968,418.823445 34,417.572234 34,416.144782 C34,413.955719 35.790861,412.181132 38,412.181132 Z M38,413.172044 C36.3431458,413.172044 35,414.502985 35,416.144782 C35,417.78658 36.3431458,419.11752 38,419.11752 C39.6568542,419.11752 41,417.78658 41,416.144782 C41,414.502985 39.6568542,413.172044 38,413.172044 Z" id="用户" fill="#42ECEE" fill-rule="nonzero"></path>
            <rect id="用户" x="30" y="411" width="16" height="16" rx="0.5"></rect>
        </g>
    </g>
</svg>