<?xml version="1.0" encoding="UTF-8"?>
<svg width="20px" height="20px" viewBox="0 0 20 20" version="1.1" xmlns="http://www.w3.org/2000/svg" xmlns:xlink="http://www.w3.org/1999/xlink">
    <title>门急诊收入人次切换</title>
    <g id="页面-1" stroke="none" stroke-width="1" fill="none" fill-rule="evenodd">
        <g id="切图" transform="translate(-1627.000000, -47.000000)" fill="#4EFEF9" fill-rule="nonzero">
            <path d="M1645.15516,58.6789487 L1640.53057,58.6789487 C1639.51169,58.6789487 1638.68573,59.5049331 1638.68573,60.5238088 L1638.68573,65.1584005 C1638.68573,65.6462473 1638.88005,66.1140018 1639.22568,66.458286 C1639.56229,66.8001279 1640.02084,66.9943395 1640.50057,66.9982994 L1645.13516,66.9982994 C1645.6275,67.0022323 1646.10111,66.8097903 1646.45113,66.4635269 C1646.80115,66.1172635 1646.99869,65.6457509 1647,65.153401 L1647,60.5238088 C1646.99911,60.0346661 1646.80505,59.5656742 1646.46005,59.2189237 C1646.11518,58.8711112 1645.64496,58.6765394 1645.15516,58.6789487 L1645.15516,58.6789487 Z M1645.00018,60.6337991 C1645.01617,60.627133 1645.03417,60.627133 1645.05017,60.6337991 L1645.05017,64.9534186 C1645.05017,64.9534186 1645.05017,64.9884155 1644.99018,65.0184129 L1640.70555,65.0184129 C1640.66966,65.0184129 1640.64056,64.9893139 1640.64056,64.9534186 L1640.64056,60.6987934 C1640.63595,60.6841482 1640.63595,60.6684424 1640.64056,60.6537973 C1640.65499,60.6479598 1640.67113,60.6479598 1640.68556,60.6537973 L1645.00018,60.6337991 Z M1628.8416,55.3192672 L1633.47119,55.3192672 C1634.48038,55.3193599 1635.30235,54.5085275 1635.31603,53.4994275 L1635.31603,48.8448375 C1635.31056,47.8282345 1634.48779,47.0054657 1633.47119,47 L1628.8466,47 C1627.82886,47.0027469 1627.00451,47.8271019 1627.00175,48.8448375 L1627.00175,53.4994275 C1627.00043,53.9877901 1627.19384,54.4565347 1627.53917,54.8018606 C1627.88449,55.1471864 1628.35324,55.3405979 1628.8416,55.3392723 L1628.8416,55.3192672 Z M1628.95659,53.3194433 L1628.95659,48.9998239 C1628.97074,48.992693 1628.98743,48.992693 1629.00159,48.9998239 C1629.0159,48.9934073 1629.03227,48.9934073 1629.04658,48.9998239 L1633.31621,48.9998239 C1633.33036,48.992693 1633.34705,48.992693 1633.3612,48.9998239 L1633.3612,53.369439 C1633.34651,53.3737442 1633.3309,53.3737442 1633.31621,53.369439 L1629.00159,53.369439 C1628.97022,53.3619891 1628.95034,53.3310769 1628.95659,53.2994451 L1628.95659,53.3194433 Z M1638.45075,47.6799401 C1637.93117,47.7747636 1637.56291,48.2408079 1637.5908,48.7682349 C1637.6187,49.295662 1638.03406,49.7202649 1638.56074,49.7597569 L1638.61074,49.7597569 C1641.38534,50.2800404 1643.75277,52.0769169 1645.00018,54.6093297 C1645.08115,54.7737911 1645.21017,54.9097809 1645.37014,54.9992954 C1645.52721,55.1185074 1645.71796,55.1850044 1645.9151,55.1892787 L1646.00009,55.1892787 C1646.25823,55.186912 1646.50546,55.0847972 1646.69003,54.9043038 C1646.88418,54.7248986 1646.99623,54.4736922 1647,54.209365 L1647,50.2447142 C1647,49.9795211 1646.89465,49.7251896 1646.70713,49.5376697 C1646.51961,49.3501498 1646.26528,49.2448023 1646.00009,49.2448023 L1645.9201,49.2448023 C1645.6549,49.2448023 1645.40057,49.3501498 1645.21305,49.5376697 C1645.02553,49.7251895 1644.92018,49.9795211 1644.92018,50.2447142 L1644.92018,50.9696503 C1643.36084,49.3195786 1641.32413,48.1989541 1639.0957,47.7649326 M1635.58101,64.4484631 C1632.74469,64.0143139 1630.28761,62.2486343 1628.97159,59.6988814 C1628.8243,59.3229288 1628.46535,59.0724549 1628.06167,59.0639374 L1628.00167,59.0639374 C1627.57149,59.0692621 1627.19294,59.3491501 1627.06176,59.7588761 C1627.03204,59.8187141 1627.0118,59.8828064 1627.00176,59.9488594 C1626.99941,59.973802 1626.99941,59.9989102 1627.00176,60.0238528 L1627.00176,64.0235005 C1627.00176,64.5757366 1627.44944,65.0234124 1628.00167,65.0234124 L1628.08167,65.0234124 C1628.34686,65.0234124 1628.60119,64.9180649 1628.78871,64.730545 C1628.97623,64.5430251 1629.08158,64.2886936 1629.08158,64.0235005 L1629.08158,63.2885652 C1630.71842,64.9787881 1632.85807,66.0942148 1635.18104,66.4682851 C1635.3018,66.5096762 1635.42837,66.5316146 1635.55601,66.5333378 L1635.631,66.5333378 C1635.90342,66.5362217 1636.16525,66.4278799 1636.35594,66.2333059 C1636.53665,66.0327863 1636.62861,65.767723 1636.61092,65.4983706 C1636.61171,65.2195102 1636.50206,64.9516779 1636.30594,64.7534362 C1636.18626,64.6290468 1636.03641,64.5377599 1635.87098,64.4884595" id="门急诊收入人次切换"></path>
        </g>
    </g>
</svg>