<?xml version="1.0" encoding="UTF-8"?>
<svg width="200px" height="84px" viewBox="0 0 200 84" version="1.1" xmlns="http://www.w3.org/2000/svg" xmlns:xlink="http://www.w3.org/1999/xlink">
    <title>门诊</title>
    <g id="页面-1" stroke="none" stroke-width="1" fill="none" fill-rule="evenodd">
        <g id="切图" transform="translate(-398.000000, -885.000000)">
            <g id="门诊" transform="translate(398.000000, 885.000000)">
                <path d="M54.5888187,58.7215272 C80.1060297,61.252713 100.341714,69.3496639 115.295872,83.0123796 L115.294118,40.3372864 L199.294118,16.6845751 C160.763977,7.76704962 126.310207,2.3599721 95.9328069,0.463342607 C65.5554068,-1.43328689 33.5778045,2.49277841 0,12.2415385 L0,54.5755877 C10.8753348,54.8083615 29.0716077,56.1903413 54.5888187,58.7215272 Z" id="路径-2" fill-opacity="0.677119755" fill="#35BDBE"></path>
                <path d="M57.5699341,60.3723665 C81.0639871,65.0390331 100.305967,72.9145142 115.295872,83.9988097 L115.294118,39.7488097 C103.851534,29.7074865 86.9742801,22.9566601 64.662357,19.4963304 C42.3504339,16.0360007 20.7963149,13.6177367 0,12.2415385 L0,55.5755877 C14.8859031,54.1067735 34.0758811,55.7056998 57.5699341,60.3723665 Z" id="路径-2" fill="#0E4F65"></path>
                <polygon id="矩形" fill-opacity="0.222082605" fill="#006E8D" points="115.295872 40.5250777 199.294118 16.6826381 199.294118 59.6826381 115.295872 83.2001709"></polygon>
            </g>
        </g>
    </g>
</svg>